<?xml version="1.0" encoding="UTF-8"?>
<svg version="1.1" xmlns="http://www.w3.org/2000/svg" width="439" height="360">
<path d="M0 0 C1.15817734 -0.00953201 2.31635468 -0.01906403 3.5096283 -0.02888489 C4.74725418 -0.02797348 5.98488007 -0.02706207 7.26000977 -0.02612305 C8.54448502 -0.03040817 9.82896027 -0.0346933 11.15235901 -0.03910828 C13.86479839 -0.04654663 16.57710755 -0.04629655 19.28955078 -0.04101562 C22.75055351 -0.03522256 26.21102081 -0.05215894 29.67193508 -0.0753603 C32.99298161 -0.09370847 36.31391293 -0.089911 39.63500977 -0.08862305 C40.87061142 -0.09783279 42.10621307 -0.10704254 43.3792572 -0.11653137 C52.9926638 -0.06496987 58.92142138 1.33977456 66.01391602 8.2746582 C69.93348158 14.05414501 71.17935245 18.4266481 71.21704102 25.31762695 C71.22274109 26.11944901 71.22844116 26.92127106 71.23431396 27.74739075 C71.24377008 29.44795409 71.25030037 31.14853582 71.25415039 32.84912109 C71.26381324 35.43465872 71.29481209 38.0193868 71.32641602 40.60473633 C71.33295056 42.2590285 71.33819926 43.91332634 71.34204102 45.56762695 C71.35438782 46.33455368 71.36673462 47.10148041 71.37945557 47.89164734 C71.34962194 55.18612004 69.04663177 61.20098741 63.99130249 66.58323669 C56.84978856 72.69196173 47.14571134 72.86038721 38.22485352 72.77075195 C36.44904404 72.7729348 36.44904404 72.7729348 34.63735962 72.77516174 C32.15152508 72.77351194 29.66567934 72.76205477 27.17993164 72.74121094 C23.39237815 72.71218474 19.60622127 72.72063767 15.81860352 72.73364258 C13.39151344 72.72740603 10.96442774 72.71901574 8.53735352 72.70825195 C7.41525482 72.71118759 6.29315613 72.71412323 5.13705444 72.71714783 C-4.01940322 72.60808981 -11.25480583 71.22750584 -18.38061523 65.26293945 C-23.19295643 59.30313004 -24.60344561 53.56127774 -24.73608398 46.0246582 C-24.76355713 45.19272949 -24.79103027 44.36080078 -24.81933594 43.50366211 C-24.89292816 41.09404261 -24.94087159 38.68494676 -24.98608398 36.2746582 C-25.02604492 35.09129883 -25.06600586 33.90793945 -25.10717773 32.6887207 C-25.33780636 22.13406945 -23.73386237 14.61310395 -16.98608398 6.2746582 C-12.03717166 1.44946869 -6.81606248 0.0309801 0 0 Z M14.54125977 17.53710938 C13.0016635 17.57094484 11.46192549 17.59878004 9.92211914 17.62109375 C7.66572329 17.65442902 5.4104645 17.70658721 3.15454102 17.76293945 C2.46507385 17.76932938 1.77560669 17.7757193 1.06524658 17.78230286 C-1.06778818 17.81467545 -1.06778818 17.81467545 -3.98608398 18.2746582 C-8.01491499 24.31790471 -7.23210733 31.7950642 -7.29858398 38.8371582 C-7.32758789 39.86518555 -7.3565918 40.89321289 -7.38647461 41.95239258 C-7.39485352 42.9469043 -7.40323242 43.94141602 -7.41186523 44.96606445 C-7.42644775 45.86526611 -7.44103027 46.76446777 -7.45605469 47.69091797 C-6.76909465 51.46759229 -6.00124052 52.82184261 -2.98608398 55.2746582 C0.95743319 56.02452043 4.85414625 55.95069944 8.85766602 55.90356445 C10.01890991 55.90597641 11.18015381 55.90838837 12.37658691 55.91087341 C14.83108944 55.90989417 17.28561383 55.89648243 19.73999023 55.87158203 C23.50002972 55.83728487 27.2577187 55.85091846 31.01782227 55.87036133 C33.40194687 55.86346287 35.7860654 55.85379049 38.17016602 55.84106445 C39.29628296 55.84602432 40.4223999 55.85098419 41.5826416 55.85609436 C42.63052856 55.84025803 43.67841553 55.82442169 44.75805664 55.80810547 C45.67864868 55.80190689 46.59924072 55.79570831 47.54772949 55.7893219 C50.78381012 55.11399049 51.98928852 53.83977174 54.01391602 51.2746582 C54.61215162 48.15518002 54.61215162 48.15518002 54.51000977 44.6809082 C54.5106543 43.40344727 54.51129883 42.12598633 54.51196289 40.80981445 C54.50156982 40.14739746 54.49117676 39.48498047 54.48046875 38.80249023 C54.45150199 36.78065922 54.45986666 34.76145148 54.47290039 32.73950195 C54.82559713 24.80153892 54.82559713 24.80153892 51.01391602 18.2746582 C39.79066306 15.28179075 26.14138945 17.26193299 14.54125977 17.53710938 Z " fill="#20B5D3" transform="translate(195.986083984375,164.725341796875)"/>
<path d="M0 0 C1.37924904 0.04178375 1.37924904 0.04178375 2.78636169 0.08441162 C5.69069672 0.17694091 8.59290543 0.2988892 11.49609375 0.421875 C13.47844912 0.49023767 15.46087233 0.55666251 17.44335938 0.62109375 C22.27451038 0.78230488 27.10398278 0.96988693 31.93359375 1.171875 C31.93359375 2.161875 31.93359375 3.151875 31.93359375 4.171875 C31.19109375 4.39875 30.44859375 4.625625 29.68359375 4.859375 C25.8966258 6.66679152 24.1682586 9.46109588 21.75854492 12.80004883 C18.92623539 14.92911201 16.35624246 14.61222911 12.859375 14.68359375 C12.17554245 14.70154495 11.4917099 14.71949615 10.78715515 14.73799133 C8.60686375 14.79209575 6.42679119 14.8259884 4.24609375 14.859375 C2.76624558 14.8925482 1.2864263 14.92703787 -0.19335938 14.96289062 C-3.81749794 15.04782024 -7.44171277 15.11463135 -11.06640625 15.171875 C-11.15341664 18.77588981 -11.20680013 22.37963512 -11.25390625 25.984375 C-11.27904297 27.00853516 -11.30417969 28.03269531 -11.33007812 29.08789062 C-11.33974609 30.07080078 -11.34941406 31.05371094 -11.359375 32.06640625 C-11.37508545 32.97237549 -11.3907959 33.87834473 -11.40698242 34.81176758 C-11.243658 37.2088133 -11.243658 37.2088133 -9.80151367 38.96118164 C-7.71929581 40.41407574 -6.53481781 40.57766414 -4.01171875 40.6484375 C-3.23183594 40.679375 -2.45195312 40.7103125 -1.6484375 40.7421875 C-0.83761719 40.76023438 -0.02679688 40.77828125 0.80859375 40.796875 C13.98147932 41.21976057 13.98147932 41.21976057 15.93359375 43.171875 C16.00603428 45.19151699 16.01736563 47.21354624 15.99609375 49.234375 C15.98707031 50.33910156 15.97804687 51.44382813 15.96875 52.58203125 C15.95714844 53.43667969 15.94554687 54.29132813 15.93359375 55.171875 C11.771061 55.27125595 7.60916896 55.34358117 3.44580078 55.39160156 C2.0316158 55.41163343 0.61751278 55.43886748 -0.79638672 55.47363281 C-2.83712044 55.52252989 -4.87675315 55.54492623 -6.91796875 55.5625 C-8.14338379 55.58344727 -9.36879883 55.60439453 -10.63134766 55.62597656 C-15.89339316 54.93035434 -18.93239696 52.45912878 -22.37890625 48.546875 C-26.1974608 43.17261305 -25.50322514 37.41183867 -25.75390625 30.984375 C-25.81384766 29.76427734 -25.87378906 28.54417969 -25.93554688 27.28710938 C-26.54372395 11.94938352 -26.54372395 11.94938352 -20.65965271 5.51422119 C-14.53274214 0.35216041 -7.70179509 -0.37543489 0 0 Z " fill="#154271" transform="translate(152.06640625,160.828125)"/>
<path d="M0 0 C6.17471146 -0.04949211 12.34930705 -0.08576343 18.52416992 -0.10986328 C20.62412528 -0.11991169 22.72406669 -0.13355266 24.82397461 -0.15087891 C27.8449244 -0.17517801 30.86568895 -0.18649482 33.88671875 -0.1953125 C35.29167854 -0.21079636 35.29167854 -0.21079636 36.72502136 -0.22659302 C42.27358757 -0.22754491 46.58974585 -0.10112336 50.94921875 3.69921875 C51.52285156 4.35535156 52.09648437 5.01148438 52.6875 5.6875 C53.55955078 6.65236328 53.55955078 6.65236328 54.44921875 7.63671875 C58.69187618 14.10222945 58.42615909 21.3893782 58.5 28.875 C58.54125 29.91269531 58.5825 30.95039063 58.625 32.01953125 C58.70074399 39.52765465 57.12368629 44.42064404 52 50 C47.31262537 54.17719244 42.67562306 54.12642475 36.60546875 54.09765625 C35.40341797 54.09443359 34.20136719 54.09121094 32.96289062 54.08789062 C31.71701172 54.07951172 30.47113281 54.07113281 29.1875 54.0625 C27.92228516 54.05798828 26.65707031 54.05347656 25.35351562 54.04882812 C22.2356568 54.03706262 19.11782235 54.01912774 16 54 C16 49.71 16 45.42 16 41 C17.69769531 40.97421875 19.39539063 40.9484375 21.14453125 40.921875 C23.36721359 40.86560456 25.58986884 40.808257 27.8125 40.75 C29.49182617 40.72873047 29.49182617 40.72873047 31.20507812 40.70703125 C32.27822266 40.67480469 33.35136719 40.64257812 34.45703125 40.609375 C35.44678955 40.58842773 36.43654785 40.56748047 37.45629883 40.54589844 C40.09182445 40.20885786 40.09182445 40.20885786 41.828125 38.28710938 C43.21906949 35.57244938 43.34599239 33.83689684 43.29296875 30.796875 C43.28330078 29.8171875 43.27363281 28.8375 43.26367188 27.828125 C43.23853516 26.81234375 43.21339844 25.7965625 43.1875 24.75 C43.17396484 23.71875 43.16042969 22.6875 43.14648438 21.625 C43.11117607 19.08280208 43.06186036 16.54166777 43 14 C42.09757568 14.01160156 41.19515137 14.02320313 40.26538086 14.03515625 C36.88878972 14.05944983 33.51618432 14.04771116 30.13989258 14.01220703 C28.68417263 14.00413852 27.22830043 14.01007772 25.77270508 14.03076172 C13.62599081 14.18888955 13.62599081 14.18888955 9.54516602 11.20507812 C7.6875 9.03125 7.6875 9.03125 6.2578125 6.86132812 C4.60120974 4.40986473 2.83470371 3.6872009 0 3 C0 2.01 0 1.02 0 0 Z " fill="#164370" transform="translate(255,162)"/>
<path d="M0 0 C4.10997383 2.97023319 7.25331448 6.52556843 8.859375 11.34375 C9.58499844 18.34083314 9.55373711 23.94190299 5.28125 29.7265625 C1.67353342 33.82984454 -1.76137511 36.22730191 -7.140625 37.34375 C-12.96247701 37.34375 -18.29461166 36.75798667 -23.140625 33.34375 C-28.5951432 27.19618714 -30.56459402 22.44490387 -30.48828125 14.203125 C-29.79299978 8.48463018 -26.70923404 4.83392858 -22.640625 0.96875 C-15.31276423 -3.7943595 -7.70751743 -4.31620976 0 0 Z " fill="#1FB5D4" transform="translate(231.140625,125.65625)"/>
<path d="M0 0 C1.12439987 -0.00570007 2.24879974 -0.01140015 3.40727234 -0.01727295 C5.76442543 -0.02665221 8.12159121 -0.03322846 10.47875977 -0.03710938 C14.08177085 -0.04689551 17.68422973 -0.07801792 21.28710938 -0.109375 C23.58723623 -0.11589891 25.88736711 -0.12115177 28.1875 -0.125 C29.79544182 -0.1435202 29.79544182 -0.1435202 31.43586731 -0.16241455 C38.32704158 -0.14183883 42.8963206 0.56394249 48.13671875 5.390625 C48.67296875 5.98875 49.20921875 6.586875 49.76171875 7.203125 C48.44171875 7.533125 47.12171875 7.863125 45.76171875 8.203125 C45.43171875 9.853125 45.10171875 11.503125 44.76171875 13.203125 C44.10171875 13.203125 43.44171875 13.203125 42.76171875 13.203125 C42.76171875 12.543125 42.76171875 11.883125 42.76171875 11.203125 C41.77171875 11.203125 40.78171875 11.203125 39.76171875 11.203125 C39.76171875 12.193125 39.76171875 13.183125 39.76171875 14.203125 C36.07167674 16.55207245 32.89460845 16.43372246 28.58984375 16.3984375 C27.90742615 16.3956076 27.22500854 16.39277771 26.52191162 16.38986206 C24.35166568 16.37870598 22.18183904 16.35361057 20.01171875 16.328125 C18.53646431 16.31808926 17.06120338 16.30896444 15.5859375 16.30078125 C11.97772933 16.27878187 8.369765 16.24428383 4.76171875 16.203125 C4.76171875 15.873125 4.76171875 15.543125 4.76171875 15.203125 C8.39171875 14.873125 12.02171875 14.543125 15.76171875 14.203125 C4.87171875 14.203125 -6.01828125 14.203125 -17.23828125 14.203125 C-17.23828125 14.863125 -17.23828125 15.523125 -17.23828125 16.203125 C-18.22828125 16.203125 -19.21828125 16.203125 -20.23828125 16.203125 C-20.56828125 17.193125 -20.89828125 18.183125 -21.23828125 19.203125 C-24.23828125 17.203125 -24.23828125 17.203125 -25.07421875 14.77734375 C-25.8489056 10.62883955 -26.46475999 7.23257381 -25.55078125 3.078125 C-19.53428829 -1.80011254 -7.46216511 0.02986635 0 0 Z " fill="#20B6D4" transform="translate(208.23828125,166.796875)"/>
<path d="M0 0 C4.34731225 2.2146685 7.48432837 4.80721395 10 9 C11.44050465 13.85124793 11.46325498 17.75895275 9.3125 22.375 C7.63215367 25.29380228 6.03334783 27.38221449 3 29 C2.34 29 1.68 29 1 29 C0.67 29.66 0.34 30.32 0 31 C-11.8448339 29.83806168 -11.8448339 29.83806168 -16.1875 26.6875 C-19.60428603 21.62123106 -20.92439561 17.15483659 -20 11 C-18.35641965 6.13815155 -15.58747975 2.93808009 -10.9921875 0.66015625 C-7.28040494 -0.5698266 -3.83770322 -0.6933077 0 0 Z " fill="#144371" transform="translate(168,130)"/>
<path d="M0 0 C4.3510757 2.21658574 7.44162365 4.8307941 10 9 C11.45451779 15.01200687 11.21444603 18.5043342 8 24 C4.07201574 28.04289869 0.82735405 30.14853336 -4.8125 30.25 C-9.06872223 30.19488345 -11.66586277 29.84382293 -15 27 C-19.12610394 22.30082606 -20.37244495 19.5410756 -20.2734375 13.3828125 C-19.75369708 8.85364599 -17.90647165 5.66939745 -14.4921875 2.6796875 C-9.94891487 -0.34211709 -5.33922743 -0.96456846 0 0 Z " fill="#144272" transform="translate(282,130)"/>
<path d="M0 0 C0.9215538 0.00222061 1.8431076 0.00444122 2.79258728 0.00672913 C3.83359085 0.00680466 4.87459442 0.00688019 5.94714355 0.00695801 C7.07941879 0.01211929 8.21169403 0.01728058 9.37828064 0.02259827 C10.53106003 0.02401321 11.68383942 0.02542816 12.87155151 0.02688599 C16.57043503 0.03250446 20.26925903 0.0450601 23.96812439 0.05775452 C26.46877456 0.06276714 28.96942567 0.06733045 31.47007751 0.07142639 C37.6152829 0.0824799 43.76044354 0.09975692 49.90562439 0.12025452 C49.90562439 4.41025452 49.90562439 8.70025452 49.90562439 13.12025452 C42.51833848 13.14489523 35.13107627 13.16308612 27.74375916 13.17518616 C25.22845544 13.18022815 22.71315467 13.18706154 20.19786072 13.19569397 C16.59132664 13.20776546 12.98483116 13.213484 9.37828064 13.21791077 C7.67986778 13.22565269 7.67986778 13.22565269 5.94714355 13.23355103 C4.90613998 13.23362656 3.86513641 13.23370209 2.79258728 13.23377991 C1.87103348 13.23600052 0.94947968 13.23822113 0 13.24050903 C-2.09437561 13.12025452 -2.09437561 13.12025452 -3.09437561 12.12025452 C-3.19288732 10.28909569 -3.2241019 8.45405518 -3.21937561 6.62025452 C-3.22195374 5.61994202 -3.22453186 4.61962952 -3.22718811 3.58900452 C-3.04350996 0.17475176 -3.04350996 0.17475176 0 0 Z " fill="#154371" transform="translate(196.09437561035156,202.87974548339844)"/>
<path d="M0 0 C-0.66 0 -1.32 0 -2 0 C-2.85777549 3.43110196 -2.96691464 5.61579877 -2 9 C-2.33 9.33 -2.66 9.66 -3 10 C-3.28106557 14.11803643 -3.23182165 18.24851451 -3.25 22.375 C-3.270625 23.53773438 -3.29125 24.70046875 -3.3125 25.8984375 C-3.31765625 27.0121875 -3.3228125 28.1259375 -3.328125 29.2734375 C-3.3374707 30.29872559 -3.34681641 31.32401367 -3.35644531 32.38037109 C-3.21931015 35.02763731 -3.21931015 35.02763731 -1.60449219 36.79541016 C-0.00105516 38.07420755 -0.00105516 38.07420755 2 39 C2 38.01 2 37.02 2 36 C17.43083004 35.71541502 17.43083004 35.71541502 24 39 C24 41.97 24 44.94 24 48 C19.81273706 48.11679952 15.62589699 48.18745327 11.4375 48.25 C9.66536133 48.30027344 9.66536133 48.30027344 7.85742188 48.3515625 C0.98966313 48.42851218 -3.42894118 48.15579718 -9 44 C-8.01 43.505 -8.01 43.505 -7 43 C-7.33 41.02 -7.66 39.04 -8 37 C-8.66 37 -9.32 37 -10 37 C-9.67 37.99 -9.34 38.98 -9 40 C-9.99 39.67 -10.98 39.34 -12 39 C-14.19795556 34.60408888 -13.27471138 28.70186695 -13.3125 23.875 C-13.34150391 22.66328125 -13.37050781 21.4515625 -13.40039062 20.203125 C-13.45148622 12.98685529 -13.0395005 8.06651604 -9 2 C-4.03378378 -1.34459459 -4.03378378 -1.34459459 0 0 Z " fill="#14426F" transform="translate(142,166)"/>
<path d="M0 0 C5.42125277 1.05780542 7.95856789 3.67415626 11.484375 7.63671875 C15.65853715 14.14539942 15.42605441 21.37876545 15.5 28.875 C15.54125 29.91269531 15.5825 30.95039063 15.625 32.01953125 C15.70074399 39.52765465 14.12368629 44.42064404 9 50 C4.31262537 54.17719244 -0.32437694 54.12642475 -6.39453125 54.09765625 C-7.59658203 54.09443359 -8.79863281 54.09121094 -10.03710938 54.08789062 C-11.28298828 54.07951172 -12.52886719 54.07113281 -13.8125 54.0625 C-15.07771484 54.05798828 -16.34292969 54.05347656 -17.64648438 54.04882812 C-20.7643432 54.03706262 -23.88217765 54.01912774 -27 54 C-27 49.71 -27 45.42 -27 41 C-25.30230469 40.97421875 -23.60460937 40.9484375 -21.85546875 40.921875 C-19.63278641 40.86560456 -17.41013116 40.808257 -15.1875 40.75 C-13.50817383 40.72873047 -13.50817383 40.72873047 -11.79492188 40.70703125 C-10.72177734 40.67480469 -9.64863281 40.64257812 -8.54296875 40.609375 C-7.55321045 40.58842773 -6.56345215 40.56748047 -5.54370117 40.54589844 C-2.90817555 40.20885786 -2.90817555 40.20885786 -1.171875 38.28710938 C0.21906949 35.57244938 0.34599239 33.83689684 0.29296875 30.796875 C0.28330078 29.8171875 0.27363281 28.8375 0.26367188 27.828125 C0.23853516 26.81234375 0.21339844 25.7965625 0.1875 24.75 C0.17396484 23.71875 0.16042969 22.6875 0.14648438 21.625 C0.11117607 19.08280208 0.06186036 16.54166777 0 14 C-0.90242432 14.01160156 -1.80484863 14.02320313 -2.73461914 14.03515625 C-6.11121028 14.05944983 -9.48381568 14.04771116 -12.86010742 14.01220703 C-14.31582737 14.00413852 -15.77169957 14.01007772 -17.22729492 14.03076172 C-29.3596556 14.18870269 -29.3596556 14.18870269 -33.45263672 11.22265625 C-35.16550004 9.22904737 -36.55281418 7.1871319 -38 5 C-38.99 4.34 -39.98 3.68 -41 3 C-41.33 2.34 -41.66 1.68 -42 1 C-28.47 1 -14.94 1 -1 1 C-1 1.33 -1 1.66 -1 2 C-12.88 2.33 -24.76 2.66 -37 3 C-35.35 4.65 -33.7 6.3 -32 8 C-31.34 8.66 -30.68 9.32 -30 10 C-26.93645532 10.19575577 -26.93645532 10.19575577 -23.34765625 10.01953125 C-22.00067015 9.98936844 -20.6536638 9.96009921 -19.30664062 9.93164062 C-17.1817861 9.87583338 -15.05793858 9.81232893 -12.93383789 9.73266602 C-10.88417081 9.66011774 -8.8357325 9.61892292 -6.78515625 9.58203125 C-5.55676025 9.54311768 -4.32836426 9.5042041 -3.06274414 9.46411133 C0 10 0 10 1.89697266 12.16040039 C3.85908719 17.21160759 3.47089374 22.26985916 3.4375 27.625 C3.4674707 29.34203125 3.4674707 29.34203125 3.49804688 31.09375 C3.49740234 32.18945312 3.49675781 33.28515625 3.49609375 34.4140625 C3.49887329 35.91380615 3.49887329 35.91380615 3.50170898 37.44384766 C3 40 3 40 1.3215332 41.83081055 C-1.52941746 43.26662953 -3.4553144 43.34379817 -6.640625 43.29296875 C-8.24550781 43.2784668 -8.24550781 43.2784668 -9.8828125 43.26367188 C-10.99398438 43.23853516 -12.10515625 43.21339844 -13.25 43.1875 C-14.93996094 43.16719727 -14.93996094 43.16719727 -16.6640625 43.14648438 C-19.44319264 43.11115645 -22.22135363 43.0618252 -25 43 C-25 45.97 -25 48.94 -25 52 C-21.14500431 51.91857227 -17.29152725 51.80577646 -13.4375 51.6875 C-12.35146484 51.66494141 -11.26542969 51.64238281 -10.14648438 51.61914062 C-0.24040417 51.34042585 -0.24040417 51.34042585 7.8125 46.0625 C8.204375 45.381875 8.59625 44.70125 9 44 C9.34828857 43.41774658 9.69657715 42.83549316 10.05541992 42.2355957 C12.02572561 37.57235217 11.32617567 32.17364952 11.3125 27.1875 C11.32861328 26.02412109 11.34472656 24.86074219 11.36132812 23.66210938 C11.36489003 17.40384411 11.32832194 12.4029262 8 7 C6.04620461 5.36952246 6.04620461 5.36952246 3.8125 4.5625 C3.09707031 4.25441406 2.38164062 3.94632813 1.64453125 3.62890625 C1.10183594 3.42136719 0.55914062 3.21382812 0 3 C0 2.01 0 1.02 0 0 Z " fill="#273F5B" transform="translate(298,162)"/>
<path d="M0 0 C1.03330948 0.00141495 2.06661896 0.0028299 3.13124084 0.00428772 C6.41174285 0.00985786 9.69217508 0.02240484 12.97265625 0.03515625 C15.20507714 0.04017511 17.4374991 0.04473734 19.66992188 0.04882812 C25.12502356 0.0598175 30.58008492 0.07652575 36.03515625 0.09765625 C36.03515625 0.42765625 36.03515625 0.75765625 36.03515625 1.09765625 C18.54515625 2.08765625 1.05515625 3.07765625 -16.96484375 4.09765625 C-18.7479429 11.23005286 -19.30022249 16.66373138 -19.27734375 23.84765625 C-19.29345703 24.87503906 -19.30957031 25.90242188 -19.32617188 26.9609375 C-19.32681641 27.94964844 -19.32746094 28.93835938 -19.328125 29.95703125 C-19.33110596 30.84874023 -19.33408691 31.74044922 -19.3371582 32.65917969 C-18.87698509 35.67308728 -18.06764541 36.90154496 -15.96484375 39.09765625 C-13.55576446 39.69621774 -13.55576446 39.69621774 -10.80664062 39.59936523 C-9.75545044 39.60874619 -8.70426025 39.61812714 -7.62121582 39.62779236 C-5.9195929 39.61094139 -5.9195929 39.61094139 -4.18359375 39.59375 C-3.01856323 39.59520523 -1.85353271 39.59666046 -0.65319824 39.59815979 C1.81146748 39.59649883 4.27614336 39.58491569 6.74072266 39.56420898 C10.52030345 39.53526997 14.29848128 39.54359379 18.078125 39.55664062 C20.47005892 39.55040308 22.8619884 39.54201202 25.25390625 39.53125 C26.38832153 39.53418564 27.52273682 39.53712128 28.69152832 39.54014587 C30.2683136 39.52111961 30.2683136 39.52111961 31.87695312 39.50170898 C33.26569641 39.49360451 33.26569641 39.49360451 34.68249512 39.4853363 C37.48393979 39.02370407 38.38470112 38.37833816 40.03515625 36.09765625 C40.4832303 33.04762772 40.4832303 33.04762772 40.3984375 29.56640625 C40.39779297 28.28121094 40.39714844 26.99601562 40.39648438 25.671875 C40.38818604 25.00333496 40.3798877 24.33479492 40.37133789 23.64599609 C40.34773817 21.60474173 40.35077972 19.5647937 40.35742188 17.5234375 C40.63676391 10.41772161 40.63676391 10.41772161 38.03515625 4.09765625 C37.04515625 3.43765625 36.05515625 2.77765625 35.03515625 2.09765625 C36.84765625 1.41015625 36.84765625 1.41015625 39.03515625 1.09765625 C41.52131183 2.93925298 42.03672529 4.10236336 43.03515625 7.09765625 C43.11912782 9.45445838 43.14243812 11.81359706 43.1328125 14.171875 C43.13139755 14.85570755 43.1299826 15.5395401 43.12852478 16.24409485 C43.12293501 18.42449347 43.11038447 20.60478876 43.09765625 22.78515625 C43.09263992 24.26497247 43.08807725 25.74479031 43.08398438 27.22460938 C43.07296896 30.84899182 43.05571137 34.47331395 43.03515625 38.09765625 C41.55015625 38.59265625 41.55015625 38.59265625 40.03515625 39.09765625 C39.70515625 40.08765625 39.37515625 41.07765625 39.03515625 42.09765625 C31.91862914 42.26662762 24.80193696 42.42637419 17.68505859 42.57983398 C15.26606605 42.633068 12.84711831 42.6883816 10.42822266 42.74584961 C6.9431321 42.82828182 3.45794671 42.90313274 -0.02734375 42.9765625 C-1.10161621 43.00359756 -2.17588867 43.03063263 -3.28271484 43.05848694 C-8.96673438 43.17042501 -14.345226 42.97424578 -19.96484375 42.09765625 C-22.01757666 37.85642632 -22.21009808 34.36381813 -22.1953125 29.6796875 C-22.19485428 28.98123215 -22.19439606 28.28277679 -22.19392395 27.56315613 C-22.19091597 26.09490243 -22.18307347 24.62665152 -22.1706543 23.15844727 C-22.15231763 20.9069495 -22.15014538 18.65586178 -22.15039062 16.40429688 C-22.11253536 5.39303946 -22.11253536 5.39303946 -20.96484375 3.09765625 C-19.97484375 3.09765625 -18.98484375 3.09765625 -17.96484375 3.09765625 C-17.96484375 2.43765625 -17.96484375 1.77765625 -17.96484375 1.09765625 C-11.94816025 0.04190547 -6.09936466 -0.0317364 0 0 Z " fill="#34A0B7" transform="translate(208.96484375,179.90234375)"/>
<path d="M0 0 C0.33 0 0.66 0 1 0 C1.04254356 1.99954746 1.04080783 4.00041636 1 6 C0.67 6.33 0.34 6.66 0 7 C-0.3595729 10.94530345 -0.47110095 14.90271849 -0.61254883 18.86132812 C-0.6859189 20.83252145 -0.77733245 22.80301685 -0.86914062 24.7734375 C-1.33932189 36.04523765 -1.33932189 36.04523765 1 47 C1.99 47.66 2.98 48.32 4 49 C4 49.99 4 50.98 4 52 C4.66 52 5.32 52 6 52 C6.391875 52.433125 6.78375 52.86625 7.1875 53.3125 C13.39646681 59.09326221 21.11841694 58.45297439 29.08984375 58.43359375 C30.97758263 58.44145653 30.97758263 58.44145653 32.90345764 58.44947815 C35.55892471 58.45588782 38.21352799 58.45602433 40.86889648 58.44604492 C44.2526086 58.43456024 47.63527625 58.45477361 51.01885128 58.48396206 C54.27168629 58.50683973 57.52444724 58.49985231 60.77734375 58.49609375 C61.98277328 58.50732773 63.18820282 58.51856171 64.43016052 58.53013611 C71.40695361 58.47262413 76.10926445 57.85114848 82 54 C82.66 53.01 83.32 52.02 84 51 C84.66 51 85.32 51 86 51 C86.33 50.01 86.66 49.02 87 48 C87.66 48 88.32 48 89 48 C89.17085066 43.77099181 89.33588552 39.54177453 89.5 35.3125 C89.54769531 34.13365234 89.59539062 32.95480469 89.64453125 31.74023438 C89.94823021 23.82236851 90.05950627 15.92342558 90 8 C90.66 7.67 91.32 7.34 92 7 C92.0745169 11.99874665 92.12877437 16.99716533 92.16479492 21.99633789 C92.17982126 23.69463742 92.20024823 25.39289855 92.22631836 27.09106445 C92.26297449 29.54127518 92.27978789 31.99097 92.29296875 34.44140625 C92.30845261 35.19273331 92.32393646 35.94406036 92.33988953 36.71815491 C92.3421713 43.9706885 89.99774211 49.96356454 84.97738647 55.30857849 C77.83587255 61.41730353 68.13179532 61.58572901 59.2109375 61.49609375 C57.43512802 61.4982766 57.43512802 61.4982766 55.6234436 61.50050354 C53.13760906 61.49885374 50.65176332 61.48739656 48.16601562 61.46655273 C44.37846214 61.43752653 40.59230525 61.44597947 36.8046875 61.45898438 C34.37759742 61.45274782 31.95051172 61.44435754 29.5234375 61.43359375 C28.40133881 61.43652939 27.27924011 61.43946503 26.12313843 61.44248962 C16.96668077 61.3334316 9.73127815 59.95284764 2.60546875 53.98828125 C-2.20687245 48.02847183 -3.61736163 42.28661954 -3.75 34.75 C-3.77747314 33.91807129 -3.80494629 33.08614258 -3.83325195 32.22900391 C-3.90684417 29.81938441 -3.9547876 27.41028856 -4 25 C-4.03996094 23.81664062 -4.07992187 22.63328125 -4.12109375 21.4140625 C-4.28827556 13.76303619 -3.6288463 6.83076951 0 0 Z " fill="#2F99AA" transform="translate(175,176)"/>
<path d="M0 0 C-3.0149966 2.00999773 -5.66321657 2.99443731 -9.0625 4.12109375 C-12.16745845 5.52959305 -13.59018626 7.15230309 -15.06933594 10.21191406 C-16.13216481 13.3959397 -16.25869881 15.97070513 -16.265625 19.32421875 C-16.26820313 20.51724609 -16.27078125 21.71027344 -16.2734375 22.93945312 C-16.26570312 24.17630859 -16.25796875 25.41316406 -16.25 26.6875 C-16.25773438 27.93595703 -16.26546875 29.18441406 -16.2734375 30.47070312 C-16.27085937 31.65986328 -16.26828125 32.84902344 -16.265625 34.07421875 C-16.26336914 35.16307373 -16.26111328 36.25192871 -16.25878906 37.3737793 C-16.26477359 40.15813021 -16.26477359 40.15813021 -14 42 C-14 41.34 -14 40.68 -14 40 C-13.34 40 -12.68 40 -12 40 C-11.61866701 41.9914056 -11.28674418 43.99279077 -11 46 C-11.495 46.495 -11.495 46.495 -12 47 C-6.03630367 51.01526847 0.38613033 50.55499164 7.375 50.6875 C8.58800781 50.72166016 9.80101562 50.75582031 11.05078125 50.79101562 C14.03376181 50.87322375 17.01645842 50.94246526 20 51 C20 48.03 20 45.06 20 42 C17.36 42 14.72 42 12 42 C12.639375 41.87625 13.27875 41.7525 13.9375 41.625 C14.618125 41.41875 15.29875 41.2125 16 41 C16.495 40.01 16.495 40.01 17 39 C20.875 39.875 20.875 39.875 22 41 C22.07244053 43.01964199 22.08377188 45.04167124 22.0625 47.0625 C22.05347656 48.16722656 22.04445312 49.27195313 22.03515625 50.41015625 C22.02355469 51.26480469 22.01195312 52.11945313 22 53 C17.83746725 53.09938095 13.67557521 53.17170617 9.51220703 53.21972656 C8.09802205 53.23975843 6.68391903 53.26699248 5.27001953 53.30175781 C3.22928581 53.35065489 1.1896531 53.37305123 -0.8515625 53.390625 C-2.07697754 53.41157227 -3.30239258 53.43251953 -4.56494141 53.45410156 C-9.82698691 52.75847934 -12.86599071 50.28725378 -16.3125 46.375 C-20.13105455 41.00073805 -19.43681889 35.23996367 -19.6875 28.8125 C-19.74744141 27.59240234 -19.80738281 26.37230469 -19.86914062 25.11523438 C-20.47550536 9.82321425 -20.47550536 9.82321425 -14.625 3.36328125 C-10.1645324 -0.37879374 -5.29426942 -3.3614409 0 0 Z " fill="#1D3858" transform="translate(146,163)"/>
<path d="M0 0 C0.9215538 0.00222061 1.8431076 0.00444122 2.79258728 0.00672913 C3.83359085 0.00680466 4.87459442 0.00688019 5.94714355 0.00695801 C7.07941879 0.01211929 8.21169403 0.01728058 9.37828064 0.02259827 C10.53106003 0.02401321 11.68383942 0.02542816 12.87155151 0.02688599 C16.57043503 0.03250446 20.26925903 0.0450601 23.96812439 0.05775452 C26.46877456 0.06276714 28.96942567 0.06733045 31.47007751 0.07142639 C37.6152829 0.0824799 43.76044354 0.09975692 49.90562439 0.12025452 C49.90562439 4.41025452 49.90562439 8.70025452 49.90562439 13.12025452 C42.51833848 13.14489523 35.13107627 13.16308612 27.74375916 13.17518616 C25.22845544 13.18022815 22.71315467 13.18706154 20.19786072 13.19569397 C16.59132664 13.20776546 12.98483116 13.213484 9.37828064 13.21791077 C7.67986778 13.22565269 7.67986778 13.22565269 5.94714355 13.23355103 C4.90613998 13.23362656 3.86513641 13.23370209 2.79258728 13.23377991 C1.87103348 13.23600052 0.94947968 13.23822113 0 13.24050903 C-2.09437561 13.12025452 -2.09437561 13.12025452 -3.09437561 12.12025452 C-3.19288732 10.28909569 -3.2241019 8.45405518 -3.21937561 6.62025452 C-3.22195374 5.61994202 -3.22453186 4.61962952 -3.22718811 3.58900452 C-3.04350996 0.17475176 -3.04350996 0.17475176 0 0 Z M-1.09437561 2.12025452 C-1.09437561 5.09025452 -1.09437561 8.06025452 -1.09437561 11.12025452 C15.07562439 11.12025452 31.24562439 11.12025452 47.90562439 11.12025452 C47.90562439 8.15025452 47.90562439 5.18025452 47.90562439 2.12025452 C31.73562439 2.12025452 15.56562439 2.12025452 -1.09437561 2.12025452 Z " fill="#223D58" transform="translate(196.09437561035156,202.87974548339844)"/>
<path d="M0 0 C5.42125277 1.05780542 7.95856789 3.67415626 11.484375 7.63671875 C15.65853715 14.14539942 15.42605441 21.37876545 15.5 28.875 C15.54125 29.91269531 15.5825 30.95039063 15.625 32.01953125 C15.70074399 39.52765465 14.12368629 44.42064404 9 50 C0.18166631 57.28968386 -15.27967826 53.68248865 -26 53 C-26 49.37 -26 45.74 -26 42 C-17.75 42 -9.5 42 -1 42 C-1 42.33 -1 42.66 -1 43 C-8.92 43 -16.84 43 -25 43 C-25 45.97 -25 48.94 -25 52 C-21.14500431 51.91857227 -17.29152725 51.80577646 -13.4375 51.6875 C-12.35146484 51.66494141 -11.26542969 51.64238281 -10.14648438 51.61914062 C-0.24040417 51.34042585 -0.24040417 51.34042585 7.8125 46.0625 C8.204375 45.381875 8.59625 44.70125 9 44 C9.34828857 43.41774658 9.69657715 42.83549316 10.05541992 42.2355957 C12.02572561 37.57235217 11.32617567 32.17364952 11.3125 27.1875 C11.32861328 26.02412109 11.34472656 24.86074219 11.36132812 23.66210938 C11.36489003 17.40384411 11.32832194 12.4029262 8 7 C6.04620461 5.36952246 6.04620461 5.36952246 3.8125 4.5625 C2.73935547 4.10037109 2.73935547 4.10037109 1.64453125 3.62890625 C1.10183594 3.42136719 0.55914062 3.21382812 0 3 C0 2.01 0 1.02 0 0 Z " fill="#102A4F" transform="translate(298,162)"/>
<path d="M0 0 C4.3510757 2.21658574 7.44162365 4.8307941 10 9 C11.45451779 15.01200687 11.21444603 18.5043342 8 24 C4.07201574 28.04289869 0.82735405 30.14853336 -4.8125 30.25 C-9.06872223 30.19488345 -11.66586277 29.84382293 -15 27 C-19.12610394 22.30082606 -20.37244495 19.5410756 -20.2734375 13.3828125 C-19.75369708 8.85364599 -17.90647165 5.66939745 -14.4921875 2.6796875 C-9.94891487 -0.34211709 -5.33922743 -0.96456846 0 0 Z M-16 8 C-17.84605224 11.69210448 -17.34397156 15.96151909 -17 20 C-15.61898801 23.60597575 -14.4686267 24.6911324 -11.25 26.8125 C-6.77926507 28.44603776 -3.02484376 28.83070513 1.4375 27 C1.953125 26.67 2.46875 26.34 3 26 C3 25.34 3 24.68 3 24 C3.99 23.67 4.98 23.34 6 23 C8.21852079 19.03001543 8.4001932 15.48216387 8 11 C6.20472472 6.8425204 4.20475482 4.6997945 0 3 C-7.09621543 1.92014113 -11.09725596 2.7201218 -16 8 Z " fill="#152F55" transform="translate(282,130)"/>
<path d="M0 0 C1.15840393 -0.00960754 2.31680786 -0.01921509 3.51031494 -0.02911377 C4.76342468 -0.03336365 6.01653442 -0.03761353 7.30761719 -0.04199219 C8.59633728 -0.04769226 9.88505737 -0.05339233 11.21282959 -0.05926514 C13.94315993 -0.06976635 16.67346091 -0.07561424 19.40380859 -0.07910156 C22.88840271 -0.08457363 26.37260358 -0.10857717 29.85707474 -0.13707352 C33.19474748 -0.16027747 36.53236801 -0.1621551 39.87011719 -0.16699219 C41.11513 -0.17933899 42.36014282 -0.19168579 43.6428833 -0.20440674 C53.30197703 -0.17965219 59.22757473 1.1925913 66.35449219 8.16113281 C68.03888091 10.46448365 69.14003242 12.53789971 70.35449219 15.16113281 C70.02449219 16.15113281 69.69449219 17.14113281 69.35449219 18.16113281 C68.69449219 17.83113281 68.03449219 17.50113281 67.35449219 17.16113281 C67.18949219 16.29488281 67.02449219 15.42863281 66.85449219 14.53613281 C64.54910663 9.34901531 60.15190336 6.98359676 55.35449219 4.16113281 C52.40392776 3.17761134 50.49037253 3.03450626 47.41503906 3.03173828 C46.40969116 3.02858612 45.40434326 3.02543396 44.36853027 3.02218628 C42.73736267 3.02522263 42.73736267 3.02522263 41.07324219 3.02832031 C39.9493811 3.02736359 38.82552002 3.02640686 37.66760254 3.02542114 C35.28360946 3.02473986 32.89961453 3.02659054 30.515625 3.03076172 C26.89676641 3.03607079 23.2780342 3.03083573 19.65917969 3.02441406 C17.33886692 3.02507563 15.01855422 3.02635843 12.69824219 3.02832031 C11.62699097 3.02629608 10.55573975 3.02427185 9.45202637 3.02218628 C-2.60501833 2.53440926 -2.60501833 2.53440926 -13.70800781 6.03613281 C-15.78452685 8.20640505 -15.78452685 8.20640505 -17.64550781 11.16113281 C-18.30550781 10.83113281 -18.96550781 10.50113281 -19.64550781 10.16113281 C-14.8021151 3.1866473 -8.4522561 0.05656082 0 0 Z " fill="#3A99AC" transform="translate(195.6455078125,164.8388671875)"/>
<path d="M0 0 C1.134375 0.66 2.26875 1.32 3.4375 2 C-0.2890625 3.1171875 -0.2890625 3.1171875 -2.75 2.0625 C-7.82930039 0.14365319 -12.66539436 0.41627519 -17.8125 2 C-21.64648912 4.78835573 -23.90513138 7.53292922 -25.5625 12 C-26.33126797 18.11844197 -26.13419736 23.3505283 -23.5625 29 C-22.9025 29 -22.2425 29 -21.5625 29 C-21.5625 29.66 -21.5625 30.32 -21.5625 31 C-20.5725 31 -19.5825 31 -18.5625 31 C-18.5625 31.66 -18.5625 32.32 -18.5625 33 C-14.89802568 34.64800856 -11.75046534 35.33580973 -7.75 35.625 C-6.77417969 35.69976562 -5.79835937 35.77453125 -4.79296875 35.8515625 C-4.05691406 35.90054688 -3.32085937 35.94953125 -2.5625 36 C-6.95518891 38.92845927 -10.52628678 37.93000495 -15.5625 37 C-21.43142029 35.08131452 -24.40444945 31.10225756 -27.5625 26 C-29.31248045 20.75005866 -29.69966424 14.84998837 -27.62109375 9.640625 C-21.52909314 -0.51907508 -11.09279268 -5.54639634 0 0 Z " fill="#358A9A" transform="translate(229.5625,125)"/>
<path d="M0 0 C2.38764705 0.82075367 3.68145265 1.53231267 5.11279297 3.63378906 C6.33262982 6.88713489 6.22375742 9.70159448 6.1953125 13.171875 C6.1924826 13.8542926 6.18965271 14.53671021 6.18673706 15.23980713 C6.17558098 17.41005307 6.15048557 19.57987971 6.125 21.75 C6.11496426 23.22525444 6.10583944 24.70051537 6.09765625 26.17578125 C6.07565687 29.78398942 6.04115883 33.39195375 6 37 C5.01 37.33 4.02 37.66 3 38 C2.505 38.99 2.505 38.99 2 40 C-16.48 40 -34.96 40 -54 40 C-54 39.67 -54 39.34 -54 39 C-53.33014572 38.99413376 -52.66029144 38.98826752 -51.97013855 38.98222351 C-45.01097968 38.9183902 -38.05228759 38.83399672 -31.09350586 38.73754883 C-28.49493557 38.70425257 -25.89629213 38.67623546 -23.29760742 38.65356445 C-19.56657681 38.62010549 -15.83621939 38.56779271 -12.10546875 38.51171875 C-10.93976852 38.50532883 -9.7740683 38.4989389 -8.57304382 38.49235535 C-6.9517028 38.46266411 -6.9517028 38.46266411 -5.29760742 38.43237305 C-4.34496506 38.42126999 -3.39232269 38.41016693 -2.41081238 38.39872742 C0.42456552 37.92978055 1.33622 37.31342721 3 35 C3.44807405 31.94997147 3.44807405 31.94997147 3.36328125 28.46875 C3.36263672 27.18355469 3.36199219 25.89835937 3.36132812 24.57421875 C3.35302979 23.90567871 3.34473145 23.23713867 3.33618164 22.54833984 C3.31258192 20.50708548 3.31562347 18.46713745 3.32226562 16.42578125 C3.60160766 9.32006536 3.60160766 9.32006536 1 3 C0.01 2.34 -0.98 1.68 -2 1 C-1.34 0.67 -0.68 0.34 0 0 Z " fill="#3690A3" transform="translate(246,181)"/>
<path d="M0 0 C0.33 0 0.66 0 1 0 C1.0745169 4.99874665 1.12877437 9.99716533 1.16479492 14.99633789 C1.17982126 16.69463742 1.20024823 18.39289855 1.22631836 20.09106445 C1.26297449 22.54127518 1.27978789 24.99097 1.29296875 27.44140625 C1.30845261 28.19273331 1.32393646 28.94406036 1.33988953 29.71815491 C1.34223874 37.18504005 -1.19444073 42.89495233 -6.171875 48.48828125 C-9.35091406 51.11710201 -13.03683749 52.07526208 -17 53 C-17 52.34 -17 51.68 -17 51 C-16.44570312 50.74605469 -15.89140625 50.49210937 -15.3203125 50.23046875 C-14.59585938 49.88628906 -13.87140625 49.54210937 -13.125 49.1875 C-12.40570313 48.85105469 -11.68640625 48.51460937 -10.9453125 48.16796875 C-8.69457194 47.00532903 -8.69457194 47.00532903 -7 44 C-6.34 44 -5.68 44 -5 44 C-4.67 43.01 -4.34 42.02 -4 41 C-3.34 41 -2.68 41 -2 41 C-1.82914934 36.77099181 -1.66411448 32.54177453 -1.5 28.3125 C-1.45230469 27.13365234 -1.40460938 25.95480469 -1.35546875 24.74023438 C-1.08277769 17.63078886 -0.97251985 10.55267442 -1.08007812 3.43823242 C-1 1 -1 1 0 0 Z " fill="#2F92A4" transform="translate(266,183)"/>
<path d="M0 0 C-2 2 -2 2 -4.32852173 2.24050903 C-5.3011496 2.23606781 -6.27377747 2.23162659 -7.27587891 2.22705078 C-8.3768692 2.22689972 -9.4778595 2.22674866 -10.61221313 2.22659302 C-11.80494843 2.21627045 -12.99768372 2.20594788 -14.2265625 2.1953125 C-15.44451508 2.1924826 -16.66246765 2.18965271 -17.91732788 2.18673706 C-21.81998383 2.17551256 -25.72241303 2.15040372 -29.625 2.125 C-32.26562169 2.11497314 -34.90624697 2.10584678 -37.546875 2.09765625 C-44.0313278 2.07556581 -50.5156477 2.04206592 -57 2 C-57 1.34 -57 0.68 -57 0 C-50.16831191 -0.16902634 -43.33645087 -0.32876186 -36.50439453 -0.48217773 C-34.18240493 -0.53539876 -31.86046224 -0.59071115 -29.53857422 -0.64819336 C-26.1924857 -0.73066232 -22.84629807 -0.80549698 -19.5 -0.87890625 C-18.4694751 -0.90594131 -17.4389502 -0.93297638 -16.37719727 -0.96083069 C-10.79480418 -1.07525736 -5.5201415 -0.85389689 0 0 Z " fill="#359BB2" transform="translate(249,235)"/>
<path d="M0 0 C7.92 0 15.84 0 24 0 C23.34 0.33 22.68 0.66 22 1 C22 1.66 22 2.32 22 3 C19 5.5 19 5.5 16 8 C16 8.66 16 9.32 16 10 C12.36743982 12.42170679 10.47421305 12.3044503 6.14453125 12.4140625 C5.15207649 12.44311172 5.15207649 12.44311172 4.13957214 12.4727478 C2.03067836 12.53242687 -0.07827037 12.57888087 -2.1875 12.625 C-3.61916415 12.66319066 -5.05080559 12.70224303 -6.48242188 12.7421875 C-9.98807312 12.83811773 -13.49389445 12.92219197 -17 13 C-17 12.01 -17 11.02 -17 10 C-7.43 9.67 2.14 9.34 12 9 C12.33 8.01 12.66 7.02 13 6 C14.33333333 5.66666667 15.66666667 5.33333333 17 5 C17.33 4.01 17.66 3.02 18 2 C12.06 1.67 6.12 1.34 0 1 C0 0.67 0 0.34 0 0 Z " fill="#1B3656" transform="translate(159,163)"/>
<path d="M0 0 C0 1.85345743 -0.0389091 3.70792946 -0.140625 5.55859375 C-0.51683421 11.39551906 -0.51683421 11.39551906 1.75 16.5625 C6.5422925 19.62424243 9.17538953 20.25390769 14.8046875 19.4921875 C17.610064 18.86322409 19.70066208 17.7059604 22 16 C21.67 17.65 21.34 19.3 21 21 C20.360625 21.12375 19.72125 21.2475 19.0625 21.375 C18.381875 21.58125 17.70125 21.7875 17 22 C16.67 22.66 16.34 23.32 16 24 C4.1551661 22.83806168 4.1551661 22.83806168 -0.1875 19.6875 C-3.80047808 14.3303256 -4.60853153 10.38958102 -4 4 C-2 1.5 -2 1.5 0 0 Z " fill="#1C3554" transform="translate(152,137)"/>
<path d="M0 0 C13.53 0 27.06 0 41 0 C41 0.33 41 0.66 41 1 C29.12 1.33 17.24 1.66 5 2 C6.65 3.65 8.3 5.3 10 7 C10.66 7.66 11.32 8.32 12 9 C14.91188245 9.37268887 14.91188245 9.37268887 18.3203125 9.4140625 C19.57714844 9.45273438 20.83398438 9.49140625 22.12890625 9.53125 C23.44761719 9.5621875 24.76632812 9.593125 26.125 9.625 C27.46486918 9.66318029 28.80471383 9.70223206 30.14453125 9.7421875 C33.42954619 9.8367203 36.71455138 9.92227156 40 10 C40 10.33 40 10.66 40 11 C35.83760235 11.17391101 31.67716207 11.30045376 27.51220703 11.38452148 C26.09776962 11.4195835 24.68358342 11.46725128 23.27001953 11.52807617 C11.47714426 12.02256249 11.47714426 12.02256249 7.80566406 9.48095703 C6.2265625 7.59765625 6.2265625 7.59765625 5.06494141 5.71118164 C3.96198541 3.67614115 3.96198541 3.67614115 1 2 C0.67 1.34 0.34 0.68 0 0 Z " fill="#0E2E54" transform="translate(256,163)"/>
<path d="M0 0 C11.88 0 23.76 0 36 0 C36 0.99 36 1.98 36 3 C35.01 2.67 34.02 2.34 33 2 C30.77181559 1.93062938 28.54165476 1.91542916 26.3125 1.9375 C25.13300781 1.94652344 23.95351562 1.95554688 22.73828125 1.96484375 C21.83464844 1.97644531 20.93101562 1.98804688 20 2 C20 2.33 20 2.66 20 3 C19.00419922 3.09087891 19.00419922 3.09087891 17.98828125 3.18359375 C12.58388802 3.67217803 12.58388802 3.67217803 7.25 4.625 C4.32757356 5.11207107 1.87921426 4.60262624 -1 4 C-0.67 2.68 -0.34 1.36 0 0 Z " fill="#234263" transform="translate(148,162)"/>
<path d="M0 0 C3.80986293 2.70700787 5.58836934 4.55432154 7 9 C7.91051693 15.94868182 7.64087924 21.62107989 3.4453125 27.375 C1.49953063 29.56268989 -0.58810927 31.34613207 -3 33 C-3.66 32.67 -4.32 32.34 -5 32 C-3.38405168 29.95880212 -1.7143618 27.95927063 0 26 C0.66 26 1.32 26 2 26 C4.11892404 20.05025282 5.72848143 15.29661091 4 9 C3.05273046 7.30280873 2.05771739 5.63064764 1 4 C0.3125 1.6875 0.3125 1.6875 0 0 Z " fill="#3196A3" transform="translate(233,128)"/>
<path d="M0 0 C0.02712066 1.43739513 0.04645067 2.87493863 0.0625 4.3125 C0.07410156 5.11300781 0.08570313 5.91351563 0.09765625 6.73828125 C0 9 0 9 -1 12 C-16.84 12 -32.68 12 -49 12 C-49 11.67 -49 11.34 -49 11 C-33.49 11 -17.98 11 -2 11 C-2.495 7.535 -2.495 7.535 -3 4 C-2.67 3.34 -2.34 2.68 -2 2 C-2.66 1.67 -3.32 1.34 -4 1 C-1 0 -1 0 0 0 Z " fill="#0B3356" transform="translate(246,203)"/>
<path d="M0 0 C4.3510757 2.21658574 7.44162365 4.8307941 10 9 C11.0291744 13.02825294 11.48853489 17.03057362 10 21 C9.34 21 8.68 21 8 21 C8.05800781 20.443125 8.11601562 19.88625 8.17578125 19.3125 C8.50810092 13.6915501 7.55997657 10.32774199 4.484375 5.62890625 C1.9672945 2.8667416 -0.0757988 2.06453919 -3.796875 1.8046875 C-4.77140625 1.82789063 -5.7459375 1.85109375 -6.75 1.875 C-7.73484375 1.89304688 -8.7196875 1.91109375 -9.734375 1.9296875 C-10.48203125 1.95289063 -11.2296875 1.97609375 -12 2 C-7.95374858 -0.69750095 -4.75213375 -0.65911444 0 0 Z " fill="#28465A" transform="translate(282,130)"/>
<path d="M0 0 C0.66 0.33 1.32 0.66 2 1 C1.98428955 1.55985596 1.9685791 2.11971191 1.95239258 2.6965332 C1.89000152 5.2350859 1.85099782 7.77347729 1.8125 10.3125 C1.78736328 11.19357422 1.76222656 12.07464844 1.73632812 12.98242188 C1.72666016 13.82998047 1.71699219 14.67753906 1.70703125 15.55078125 C1.6913208 16.33106689 1.67561035 17.11135254 1.65942383 17.9152832 C2.08661244 20.53016748 3.16192218 21.17403672 5 23 C5 24.32 5 25.64 5 27 C2.5625 26.3125 2.5625 26.3125 0 25 C-0.98278311 21.64703869 -1.08026448 18.60455497 -0.87890625 15.13671875 C-0.83056641 14.25048828 -0.78222656 13.36425781 -0.73242188 12.45117188 C-0.67634766 11.53916016 -0.62027344 10.62714844 -0.5625 9.6875 C-0.51029297 8.75615234 -0.45808594 7.82480469 -0.40429688 6.86523438 C-0.2751852 4.57643647 -0.14024585 2.28813814 0 0 Z " fill="#192A47" transform="translate(139,178)"/>
<path d="M0 0 C1.98 0.66 3.96 1.32 6 2 C3.53367876 6.22797927 3.53367876 6.22797927 1 8 C-3.04568254 8.53661849 -6.94217941 8.34947737 -11 8 C-11 7.67 -11 7.34 -11 7 C-8.36 6.67 -5.72 6.34 -3 6 C-3 4.68 -3 3.36 -3 2 C-2.01 2 -1.02 2 0 2 C0 1.34 0 0.68 0 0 Z " fill="#24ADCA" transform="translate(227,153)"/>
<path d="M0 0 C2.475 0.495 2.475 0.495 5 1 C5 4.96 5 8.92 5 13 C-2.92 13 -10.84 13 -19 13 C-19 12.67 -19 12.34 -19 12 C-11.41 12 -3.82 12 4 12 C4 9.03 4 6.06 4 3 C1.36 3 -1.28 3 -4 3 C-2.68 2.67 -1.36 2.34 0 2 C0 1.34 0 0.68 0 0 Z " fill="#0D2A4B" transform="translate(162,202)"/>
<path d="M0 0 C0.33 0 0.66 0 1 0 C2.05252606 16.03222735 2.05252606 16.03222735 2.25 23.4375 C2.27578125 24.28183594 2.3015625 25.12617188 2.328125 25.99609375 C2.21984375 26.65738281 2.1115625 27.31867188 2 28 C-1 30 -1 30 -4 30 C-3.505 28.515 -3.505 28.515 -3 27 C-2.01 27 -1.02 27 0 27 C0 18.09 0 9.18 0 0 Z " fill="#2AB0CC" transform="translate(252,191)"/>
<path d="M0 0 C0.515625 0.391875 1.03125 0.78375 1.5625 1.1875 C-1.4524966 3.19749773 -4.10071657 4.18193731 -7.5 5.30859375 C-10.42608733 6.63595191 -12.01073855 8.3339771 -13.4375 11.1875 C-14.4275 11.1875 -15.4175 11.1875 -16.4375 11.1875 C-14.37003259 6.11280727 -10.76662944 2.62233531 -5.875 0.25 C-2.4375 -0.8125 -2.4375 -0.8125 0 0 Z " fill="#1A2F52" transform="translate(144.4375,161.8125)"/>
<path d="M0 0 C3.62113142 0.24689532 5.53324973 0.59632409 8.3125 3 C10.53734154 6.95527385 10.8049085 10.52265009 11 15 C10.01 15.33 9.02 15.66 8 16 C7.34 12.04 6.68 8.08 6 4 C4.35 3.67 2.7 3.34 1 3 C0.67 2.01 0.34 1.02 0 0 Z " fill="#173152" transform="translate(168,133)"/>
<path d="M0 0 C2.97 0.495 2.97 0.495 6 1 C6 1.66 6 2.32 6 3 C9.66447432 4.64800856 12.81203466 5.33580973 16.8125 5.625 C17.78832031 5.69976562 18.76414063 5.77453125 19.76953125 5.8515625 C20.50558594 5.90054688 21.24164063 5.94953125 22 6 C17.6220311 8.91864593 14.02136277 7.95421536 9 7 C4.77777191 5.38787655 2.39142746 3.85285536 0 0 Z " fill="#4B95A5" transform="translate(205,155)"/>
<path d="M0 0 C0.845625 0.66 1.69125 1.32 2.5625 2 C-0.4375 2 -0.4375 2 -2.4375 1 C-7.34165979 0.46195369 -11.85386343 0.15061208 -16.0625 3 C-17.238125 3.99 -17.238125 3.99 -18.4375 5 C-18.4375 3.68 -18.4375 2.36 -18.4375 1 C-12.74529714 -2.7948019 -5.99032405 -3.48527945 0 0 Z " fill="#122F4D" transform="translate(284.4375,133)"/>
<path d="M0 0 C0.66 0.33 1.32 0.66 2 1 C1.01 3.31 0.02 5.62 -1 8 C-1.66 8 -2.32 8 -3 8 C-3 14.6 -3 21.2 -3 28 C-3.33 28 -3.66 28 -4 28 C-4 19.66666667 -4 11.33333333 -4 3 C-2.68 2.67 -1.36 2.34 0 2 C0 1.34 0 0.68 0 0 Z " fill="#1A3D64" transform="translate(142,170)"/>
<path d="M0 0 C0.33 0 0.66 0 1 0 C1.13277344 1.134375 1.26554688 2.26875 1.40234375 3.4375 C1.58071331 4.95833519 1.75909962 6.47916842 1.9375 8 C2.02451172 8.74378906 2.11152344 9.48757812 2.20117188 10.25390625 C2.77853831 15.17221292 3.38027284 20.08684772 4 25 C1.29804376 22.53299648 0.09210468 20.69135891 -0.11352539 16.9152832 C-0.10828857 16.13499756 -0.10305176 15.35471191 -0.09765625 14.55078125 C-0.09443359 13.70322266 -0.09121094 12.85566406 -0.08789062 11.98242188 C-0.07951172 11.10134766 -0.07113281 10.22027344 -0.0625 9.3125 C-0.05798828 8.41982422 -0.05347656 7.52714844 -0.04882812 6.60742188 C-0.03704983 4.40488013 -0.02060164 2.20247401 0 0 Z " fill="#378FA4" transform="translate(172,201)"/>
<path d="M0 0 C6.35945776 1.24086981 9.18350306 5.14469324 13 10 C12.34 11.32 11.68 12.64 11 14 C10.67 12.9275 10.34 11.855 10 10.75 C8.26331713 6.57348949 5.67354671 5.36392372 1.64453125 3.62890625 C1.10183594 3.42136719 0.55914062 3.21382812 0 3 C0 2.01 0 1.02 0 0 Z " fill="#1B354F" transform="translate(298,162)"/>
<path d="M0 0 C0.639375 0.495 1.27875 0.99 1.9375 1.5 C-0.0625 2.5 -0.0625 2.5 -2.1875 2.0625 C-7.09984131 1.10138974 -12.25515732 0.89755244 -17.0625 2.5 C-13.32339347 -3.1086598 -5.68101438 -2.78253766 0 0 Z " fill="#2E465B" transform="translate(171.0625,131.5)"/>
<path d="M0 0 C2 1 2 1 3.125 3.25 C4.00513321 6.01613295 4.1645438 8.12048351 4 11 C2.35 10.67 0.7 10.34 -1 10 C-1 8.68 -1 7.36 -1 6 C-0.34 6 0.32 6 1 6 C0.67 4.02 0.34 2.04 0 0 Z " fill="#1FAFC8" transform="translate(235,133)"/>
<path d="M0 0 C3.80165995 2.70117944 5.61823757 4.5476544 7 9 C7.1953125 11.89453125 7.1953125 11.89453125 7.125 14.8125 C7.10695312 15.78832031 7.08890625 16.76414063 7.0703125 17.76953125 C7.03550781 18.87361328 7.03550781 18.87361328 7 20 C6.67 20 6.34 20 6 20 C5.94392578 19.12988281 5.94392578 19.12988281 5.88671875 18.2421875 C5.38170317 12.24141412 4.4203251 7.4203251 0 3 C0 2.01 0 1.02 0 0 Z " fill="#3989A1" transform="translate(233,128)"/>
<path d="M0 0 C0.66 0 1.32 0 2 0 C1.67 3.63 1.34 7.26 1 11 C0.01 11.33 -0.98 11.66 -2 12 C-2.28571429 3.42857143 -2.28571429 3.42857143 0 0 Z " fill="#1B3F55" transform="translate(264,137)"/>
<path d="M0 0 C0.33 1.32 0.66 2.64 1 4 C0.195625 4.28875 -0.60875 4.5775 -1.4375 4.875 C-4.1326468 5.73262568 -4.1326468 5.73262568 -5 8 C-7.31 7.34 -9.62 6.68 -12 6 C-12 5.67 -12 5.34 -12 5 C-11.30132812 4.80664062 -10.60265625 4.61328125 -9.8828125 4.4140625 C-8.97273437 4.15367187 -8.06265625 3.89328125 -7.125 3.625 C-6.22007812 3.36976563 -5.31515625 3.11453125 -4.3828125 2.8515625 C-1.85430274 2.1395685 -1.85430274 2.1395685 0 0 Z " fill="#16304F" transform="translate(173,153)"/>
<path d="M0 0 C0.33 0 0.66 0 1 0 C1 3.96 1 7.92 1 12 C-0.98 12.99 -0.98 12.99 -3 14 C-3.66 13.34 -4.32 12.68 -5 12 C-4.360625 11.505 -3.72125 11.01 -3.0625 10.5 C-0.18484731 7.01193613 -0.29769264 4.46538959 0 0 Z " fill="#173B56" transform="translate(300,190)"/>
<path d="M0 0 C0.66 0 1.32 0 2 0 C2.433125 0.928125 2.86625 1.85625 3.3125 2.8125 C4.72038627 5.47184073 5.76123556 7.08105905 8 9 C7.34 9.66 6.68 10.32 6 11 C5.01524786 9.90081184 4.03739527 8.7954398 3.0625 7.6875 C2.51722656 7.07261719 1.97195313 6.45773438 1.41015625 5.82421875 C0 4 0 4 -1 1 C-0.67 0.67 -0.34 0.34 0 0 Z " fill="#122E4D" transform="translate(263,148)"/>
<path d="M0 0 C0.02712066 1.43739513 0.04645067 2.87493863 0.0625 4.3125 C0.07410156 5.11300781 0.08570313 5.91351563 0.09765625 6.73828125 C0 9 0 9 -1 12 C-2.65 12 -4.3 12 -6 12 C-4.68 11.67 -3.36 11.34 -2 11 C-2.185625 9.88625 -2.37125 8.7725 -2.5625 7.625 C-3 4 -3 4 -2 2 C-2.66 1.67 -3.32 1.34 -4 1 C-1 0 -1 0 0 0 Z " fill="#0E2E4A" transform="translate(246,203)"/>
<path d="M0 0 C2.97 0.33 5.94 0.66 9 1 C9 1.33 9 1.66 9 2 C7.906875 2.061875 6.81375 2.12375 5.6875 2.1875 C1.85667284 2.6132233 1.85667284 2.6132233 0.0625 5.5625 C-0.288125 6.366875 -0.63875 7.17125 -1 8 C-1.66 7.67 -2.32 7.34 -3 7 C-3.625 4.4375 -3.625 4.4375 -4 2 C-2.68 2.33 -1.36 2.66 0 3 C0 2.01 0 1.02 0 0 Z " fill="#204770" transform="translate(144,202)"/>
<path d="M0 0 C3.2441189 1.04275251 4.60194664 2.61240491 6.3125 5.4375 C8 9 8 9 7 12 C5 11 5 11 4.0625 8.25 C3.711875 7.1775 3.36125 6.105 3 5 C2.0436126 3.30792999 1.05589069 1.63183107 0 0 Z " fill="#3E8D9D" transform="translate(258,171)"/>
<path d="M0 0 C11.70615034 -0.55353075 11.70615034 -0.55353075 16 3 C12.29527816 4.3721192 10.55072117 3.4863484 7 2 C4.67402489 1.6186926 2.34087842 1.27539746 0 1 C0 0.67 0 0.34 0 0 Z " fill="#2B93A4" transform="translate(217,124)"/>
<path d="M0 0 C4.19360449 0.67097672 7.40334352 2.8558394 11 5 C9.02 5.99 9.02 5.99 7 7 C5.83040013 6.02433888 4.66438823 5.044375 3.5 4.0625 C2.8503125 3.51722656 2.200625 2.97195312 1.53125 2.41015625 C1.0259375 1.94480469 0.520625 1.47945312 0 1 C0 0.67 0 0.34 0 0 Z " fill="#14285B" transform="translate(129,208)"/>
<path d="M0 0 C2.31 0 4.62 0 7 0 C6.67 0.99 6.34 1.98 6 3 C0.25 4 0.25 4 -2 4 C-1.34 2.68 -0.68 1.36 0 0 Z " fill="#24AFC8" transform="translate(185,168)"/>
<path d="M0 0 C0.33 0 0.66 0 1 0 C1.04898438 0.59167969 1.09796875 1.18335938 1.1484375 1.79296875 C1.56456867 6.19104472 2.04965595 9.96928897 4 14 C4.66 14 5.32 14 6 14 C5.67 14.66 5.34 15.32 5 16 C2.71195063 14.34116421 1.43536563 13.37716693 0 11 C-0.44207004 7.29701335 -0.29251428 3.71168123 0 0 Z " fill="#3394A8" transform="translate(202,140)"/>
<path d="M0 0 C0.66 0 1.32 0 2 0 C1.50769231 7.50769231 1.50769231 7.50769231 -1.0625 10 C-2.0215625 10.495 -2.0215625 10.495 -3 11 C-2.32829194 7.1936543 -1.27253436 3.64793184 0 0 Z " fill="#2AAFC7" transform="translate(263,216)"/>
<path d="M0 0 C0.66 0 1.32 0 2 0 C2.33 1.98 2.66 3.96 3 6 C0.0625 5.625 0.0625 5.625 -3 5 C-3.33 4.34 -3.66 3.68 -4 3 C-2.68 2.67 -1.36 2.34 0 2 C0 1.34 0 0.68 0 0 Z " fill="#1A3E66" transform="translate(132,203)"/>
<path d="M0 0 C0.33 0 0.66 0 1 0 C1.32434322 4.64891954 0.776422 7.22406608 -2 11 C-2.33 11 -2.66 11 -3 11 C-2.53199289 6.94393835 -2.12046792 3.53411321 0 0 Z " fill="#388EA7" transform="translate(175,176)"/>
<path d="M0 0 C2.97 0.495 2.97 0.495 6 1 C6 1.66 6 2.32 6 3 C7.32 3.66 8.64 4.32 10 5 C7.25 5.3125 7.25 5.3125 4 5 C1.625 2.5 1.625 2.5 0 0 Z " fill="#439DAF" transform="translate(205,155)"/>
<path d="M0 0 C1.32 0.33 2.64 0.66 4 1 C1.36 2.98 -1.28 4.96 -4 7 C-4.33 6.01 -4.66 5.02 -5 4 C-4.0409375 3.8453125 -4.0409375 3.8453125 -3.0625 3.6875 C-2.381875 3.460625 -1.70125 3.23375 -1 3 C-0.67 2.01 -0.34 1.02 0 0 Z " fill="#1C3957" transform="translate(177,165)"/>
<path d="M0 0 C4.11574371 0.4748935 7.36383344 1.0210244 11 3 C9.54176788 3.0270043 8.08339325 3.04639787 6.625 3.0625 C5.81289063 3.07410156 5.00078125 3.08570313 4.1640625 3.09765625 C2 3 2 3 0 2 C0 1.34 0 0.68 0 0 Z " fill="#1B3D56" transform="translate(270,157)"/>
<path d="M0 0 C0.33 0 0.66 0 1 0 C0.38461538 6.52307692 0.38461538 6.52307692 -1.5625 8.9375 C-2.036875 9.288125 -2.51125 9.63875 -3 10 C-2.67 7.69 -2.34 5.38 -2 3 C-1.34 3 -0.68 3 0 3 C0 2.01 0 1.02 0 0 Z " fill="#1C445D" transform="translate(177,146)"/>
<path d="M0 0 C0.99 0.66 1.98 1.32 3 2 C0.11584117 3.44207941 -2.41721528 3.09394887 -5.625 3.0625 C-6.81351563 3.05347656 -8.00203125 3.04445312 -9.2265625 3.03515625 C-10.14179688 3.02355469 -11.05703125 3.01195312 -12 3 C-12 2.67 -12 2.34 -12 2 C-11.21753906 1.93941406 -10.43507812 1.87882813 -9.62890625 1.81640625 C-8.61699219 1.73261719 -7.60507813 1.64882812 -6.5625 1.5625 C-5.55316406 1.48128906 -4.54382813 1.40007812 -3.50390625 1.31640625 C-1.06359221 1.26788532 -1.06359221 1.26788532 0 0 Z " fill="#0E2A44" transform="translate(172,171)"/>
<path d="M0 0 C0.804375 0.4640625 0.804375 0.4640625 1.625 0.9375 C4.3984957 2.17827439 7.00042837 2.5909675 10 3 C10 3.33 10 3.66 10 4 C7.03 4 4.06 4 1 4 C0.67 2.68 0.34 1.36 0 0 Z " fill="#20405B" transform="translate(157,156)"/>
<path d="M0 0 C0.66 0.33 1.32 0.66 2 1 C-0.97 3.475 -0.97 3.475 -4 6 C-4.66 5.67 -5.32 5.34 -6 5 C-2.25 1.125 -2.25 1.125 0 0 Z " fill="#3F97A5" transform="translate(234,155)"/>
<path d="M0 0 C2 1.1875 2 1.1875 4 3 C4.25 5.6875 4.25 5.6875 4 8 C1 6 1 6 0.3125 2.875 C0.209375 1.92625 0.10625 0.9775 0 0 Z " fill="#2EADCC" transform="translate(259,174)"/>
<path d="M0 0 C-0.99 0 -1.98 0 -3 0 C-3 1.32 -3 2.64 -3 4 C-4.65 3.67 -6.3 3.34 -8 3 C-8 2.34 -8 1.68 -8 1 C-4.93251126 -0.86240388 -3.40254489 -1.2151946 0 0 Z " fill="#0E3359" transform="translate(162,133)"/>
</svg>
