<?xml version="1.0" encoding="UTF-8"?>
<svg version="1.1" xmlns="http://www.w3.org/2000/svg" width="500" height="500">
<path d="M0 0 C1.00836914 0.10103027 1.00836914 0.10103027 2.03710938 0.20410156 C23.79272487 2.44211942 42.3965118 7.54722758 61 19 C61 19.66 61 20.32 61 21 C61.5775 21.2475 62.155 21.495 62.75 21.75 C65.32939979 23.18299988 67.06121592 24.78424676 69 27 C69 27.66 69 28.32 69 29 C69.66 29 70.32 29 71 29 C71.967407 30.68231469 72.92347446 32.37115197 73.875 34.0625 C74.40867187 35.00222656 74.94234375 35.94195312 75.4921875 36.91015625 C78.41773168 42.90524808 79.36148735 48.50576985 79.3125 55.125 C79.30976074 55.89634277 79.30702148 56.66768555 79.30419922 57.46240234 C79.15136309 66.25487141 77.76607015 74.83957901 76.38037109 83.50634766 C75.80709278 87.26466906 75.3745484 91.03640187 74.9375 94.8125 C73.6972443 104.84637196 72.36627323 114.00650554 64.0859375 120.6796875 C54.94554248 126.46518097 43.15323618 126.14986187 32.72558594 126.14526367 C31.62203262 126.14862228 30.51847931 126.1519809 29.38148499 126.15544128 C25.7491034 126.16490599 22.11676814 126.16689219 18.484375 126.16796875 C15.94622784 126.17118458 13.40808086 126.1745489 10.86993408 126.17805481 C5.55407202 126.18403498 0.23822705 126.18593886 -5.07763672 126.18530273 C-11.19422672 126.18470286 -17.31072828 126.19524243 -23.42729592 126.2110464 C-29.34221649 126.22577663 -35.25711045 126.22928865 -41.17205048 126.22869301 C-43.67411408 126.22986808 -46.17617844 126.2342631 -48.67823029 126.24202538 C-52.18822938 126.25189482 -55.69800461 126.24891976 -59.20800781 126.24291992 C-60.22763107 126.24853943 -61.24725433 126.25415894 -62.29777527 126.25994873 C-72.90829909 126.21418743 -84.16874356 125.45844555 -93 119 C-101.3633227 110.06408467 -101.42368748 98.29856737 -102.5625 86.6875 C-102.8112421 84.19114984 -103.06243591 81.69504242 -103.31640625 79.19921875 C-103.42412354 78.10440186 -103.53184082 77.00958496 -103.64282227 75.8815918 C-103.92324603 73.1175186 -103.92324603 73.1175186 -104.52783203 70.94311523 C-105.59573435 66.54837142 -105.27170262 61.87359108 -105.3125 57.375 C-105.34150391 56.33214844 -105.37050781 55.28929687 -105.40039062 54.21484375 C-105.47300913 45.26600962 -102.97066481 38.8654215 -99 31 C-98.34 31 -97.68 31 -97 31 C-96.690625 30.38125 -96.38125 29.7625 -96.0625 29.125 C-95.375 27.75 -94.6875 26.375 -94 25 C-93.34 25 -92.68 25 -92 25 C-92 24.34 -92 23.68 -92 23 C-91.34 23 -90.68 23 -90 23 C-90 22.34 -90 21.68 -90 21 C-64.39656819 2.39456019 -31.01931004 -3.27711309 0 0 Z " fill="#045D9C" transform="translate(263,247)"/>
<path d="M0 0 C4.35172536 3.26890168 4.35172536 3.26890168 6.24609375 5.125 C6.24609375 5.785 6.24609375 6.445 6.24609375 7.125 C6.90609375 7.125 7.56609375 7.125 8.24609375 7.125 C20.16903863 21.68028336 21.79425991 36.84600813 20.24609375 55.125 C18.81605299 63.07859748 15.20668872 70.71874593 10.24609375 77.125 C9.58609375 77.125 8.92609375 77.125 8.24609375 77.125 C7.84390625 78.0221875 7.84390625 78.0221875 7.43359375 78.9375 C6.24691969 81.12347854 5.15010262 82.53832594 3.24609375 84.125 C2.58609375 84.125 1.92609375 84.125 1.24609375 84.125 C1.24609375 84.785 1.24609375 85.445 1.24609375 86.125 C-9.21186429 94.96626887 -22.9118165 98.72900969 -36.4140625 98.43359375 C-51.32519524 97.05583996 -62.90284719 91.49378977 -73.75390625 81.125 C-73.75390625 80.465 -73.75390625 79.805 -73.75390625 79.125 C-74.41390625 79.125 -75.07390625 79.125 -75.75390625 79.125 C-86.35296611 64.90115343 -89.44421588 50.66720095 -87.75390625 33.125 C-86.55859882 25.84679329 -83.76188796 19.28011477 -79.75390625 13.125 C-79.09390625 13.125 -78.43390625 13.125 -77.75390625 13.125 C-77.56828125 12.444375 -77.38265625 11.76375 -77.19140625 11.0625 C-72.52023599 1.51706513 -61.8148051 -4.4077926 -52.328125 -8.26953125 C-33.91495389 -14.17092131 -15.82766184 -10.7762804 0 0 Z " fill="#075F9C" transform="translate(282.75390625,137.875)"/>
<path d="M0 0 C0.68030273 0.21962402 1.36060547 0.43924805 2.06152344 0.66552734 C12.26675544 4.09070378 21.69638228 8.92150636 29 17 C29 17.66 29 18.32 29 19 C29.66 19 30.32 19 31 19 C35.33505954 26.22509923 37.36967024 32.1136178 37.3125 40.5625 C37.31048584 41.38024902 37.30847168 42.19799805 37.30639648 43.04052734 C37.1646112 52.01460219 35.80928353 60.77153089 34.35693359 69.61157227 C33.99691762 72.02062583 33.74468909 74.42332416 33.51171875 76.84765625 C32.88811825 82.70911482 30.87208176 87.02094214 26.8125 91.3125 C17.66178514 96.80292892 8.43115831 96.39771851 -1.84765625 96.29296875 C-3.47146714 96.28736428 -5.09528315 96.28309821 -6.71910095 96.28010559 C-10.96554903 96.26872373 -15.21168279 96.23931504 -19.45800781 96.20599365 C-23.8020401 96.17514809 -28.14612383 96.16156948 -32.49023438 96.14648438 C-40.99363284 96.11443798 -49.49677717 96.06332365 -58 96 C-57.84600682 93.42991347 -57.69023771 90.85995519 -57.53344727 88.29003906 C-57.49023598 87.56579742 -57.44702469 86.84155579 -57.40250397 86.09536743 C-57.1060362 81.26553167 -56.63665974 76.53536003 -55.9375 71.75 C-53.77271335 55.44713765 -55.58965603 43.24370232 -64 29 C-64.6791898 27.6730021 -65.3507853 26.34191747 -66 25 C-66.66 25 -67.32 25 -68 25 C-68 24.34 -68 23.68 -68 23 C-68.66 23 -69.32 23 -70 23 C-70 22.34 -70 21.68 -70 21 C-70.5465625 20.7525 -71.093125 20.505 -71.65625 20.25 C-75.50173274 18.19907587 -78.85897331 15.47900896 -82.34375 12.875 C-84.52729043 11.33367734 -86.57445904 10.09835817 -89 9 C-84.07864301 1.61796451 -69.88087421 -1.05587636 -61.38696289 -2.86499023 C-41.97047524 -6.27960739 -18.78595002 -6.11861445 0 0 Z " fill="#065E9C" transform="translate(404,244)"/>
<path d="M0 0 C0.70306274 -0.00163147 1.40612549 -0.00326294 2.13049316 -0.00494385 C19.63405253 -0.00035027 36.56985849 2.69998957 52 11.375 C50.67956745 15.33629765 48.94351974 15.93099516 45.4375 18.125 C36.52239457 23.5278359 36.52239457 23.5278359 30 31.375 C29.34 31.375 28.68 31.375 28 31.375 C27.7215625 32.09945313 27.443125 32.82390625 27.15625 33.5703125 C25.71806602 37.0588804 23.977663 40.34418785 22.21875 43.6796875 C19.47906688 49.73860209 18.64268735 55.26355201 18.6875 61.8125 C18.68878906 62.61437744 18.69007813 63.41625488 18.69140625 64.24243164 C18.84348351 74.24816475 20.28547882 84.13079969 21.72460938 94.01928711 C22 96.375 22 96.375 22 100.375 C12.6374562 100.44472303 3.27500273 100.49792398 -6.08774471 100.53043652 C-10.43595026 100.54604635 -14.78397726 100.56719831 -19.13208008 100.60131836 C-23.33367717 100.63407983 -27.53510327 100.65188818 -31.73681831 100.65963173 C-33.33428193 100.66514527 -34.93173693 100.67591142 -36.52912712 100.69219017 C-56.8550495 100.8909604 -56.8550495 100.8909604 -65 94.375 C-69.38900231 88.4811969 -70.07505229 82.54334479 -71 75.375 C-71.185625 74.23546875 -71.37125 73.0959375 -71.5625 71.921875 C-72.83662525 63.46309902 -73.29048349 55.05146032 -73.4375 46.5 C-73.47182129 45.45432861 -73.50614258 44.40865723 -73.54150391 43.33129883 C-73.59157414 34.32652461 -70.84750371 27.26673575 -65 20.375 C-64.34 20.375 -63.68 20.375 -63 20.375 C-63 19.715 -63 19.055 -63 18.375 C-56.76109034 13.00222964 -49.5614297 9.47623154 -42 6.375 C-41.23816406 6.04371094 -40.47632813 5.71242187 -39.69140625 5.37109375 C-26.86535873 0.62415309 -13.52720451 -0.01474211 0 0 Z " fill="#055E9C" transform="translate(132,239.625)"/>
<path d="M0 0 C1.26650391 0.56267578 1.26650391 0.56267578 2.55859375 1.13671875 C7.64878082 3.53432544 11.95951528 6.06584383 16 10 C16 10.66 16 11.32 16 12 C16.66 12 17.32 12 18 12 C19.4375 14.01171875 19.4375 14.01171875 21 16.6875 C21.515625 17.55761719 22.03125 18.42773438 22.5625 19.32421875 C28.61846874 30.59687795 28.52662737 41.74455487 26 54 C25.02349995 56.99925015 23.78666801 59.41079587 22 62 C21.55527344 62.67289062 21.11054688 63.34578125 20.65234375 64.0390625 C13.86955064 73.69775988 4.12998751 80.97331239 -7.5625 83.4375 C-12.85715939 84.18418273 -17.74729827 83.91504352 -23 83 C-24.01513672 82.82984375 -24.01513672 82.82984375 -25.05078125 82.65625 C-35.79405313 80.41717129 -45.16310428 74.35766643 -51.7890625 65.6484375 C-58.74353228 54.85701888 -60.67712533 42.88106339 -58.53125 30.23828125 C-56.30100138 21.7819219 -51.73908532 13.64626067 -45 8 C-44.01 7.67 -43.02 7.34 -42 7 C-42 6.34 -42 5.68 -42 5 C-28.70861522 -2.76959625 -14.86190914 -6.77012558 0 0 Z " fill="#075F9D" transform="translate(148,146)"/>
<path d="M0 0 C0 0.66 0 1.32 0 2 C0.7425 2.2475 1.485 2.495 2.25 2.75 C10.12520164 6.32963711 14.96717124 15.23988755 18 23 C21.76747636 34.51940415 20.64778393 46.58621693 15.3125 57.4296875 C13.64200053 60.38786364 12.01379156 63.26318448 10 66 C9.34 66 8.68 66 8 66 C8 66.66 8 67.32 8 68 C7.34 68 6.68 68 6 68 C6 68.66 6 69.32 6 70 C3.76953125 71.65625 3.76953125 71.65625 0.8125 73.5 C-0.15042969 74.1084375 -1.11335938 74.716875 -2.10546875 75.34375 C-12.48159677 81.28096765 -23.24811969 81.83942923 -34.6875 79.125 C-41.17108813 76.92302667 -47.57592445 74.2688179 -53 70 C-53 69.34 -53 68.68 -53 68 C-53.66 68 -54.32 68 -55 68 C-58 64.53846154 -58 64.53846154 -58 62 C-58.66 62 -59.32 62 -60 62 C-60.63032133 60.79443396 -61.2539497 59.58536811 -61.875 58.375 C-62.22304688 57.70210937 -62.57109375 57.02921875 -62.9296875 56.3359375 C-67.6596192 46.01294787 -68.44762029 32.04516281 -64.52734375 21.28125 C-59.10716826 8.92076109 -50.03064189 1.23061086 -37.703125 -3.96875 C-24.75178388 -8.53981157 -11.93151442 -6.21783146 0 0 Z " fill="#065E9C" transform="translate(392,149)"/>
<path d="M0 0 C2.47322006 3.7098301 2.34201813 6.57734543 2.3125 10.875 C2.31121094 11.65278809 2.30992187 12.43057617 2.30859375 13.23193359 C2.15536151 22.92578828 0.60059733 32.45601276 -1 42 C-1.33 42 -1.66 42 -2 42 C-2.13055026 33.78983939 -1.86310565 25.67441377 -1.35571289 17.4831543 C-1.10309961 13.29229554 -0.95185184 9.13842694 -1 4.9375 C-1 1 -1 1 0 0 Z " fill="#709FBE" transform="translate(340,291)"/>
<path d="M0 0 C-1.38550828 3.2870477 -2.84068329 4.90210594 -5.75 6.9375 C-8.39310715 8.8261202 -10.92340569 10.7434414 -13.375 12.875 C-16 15 -16 15 -18 15 C-18 15.99 -18 16.98 -18 18 C-18.99 18.33 -19.98 18.66 -21 19 C-18.70555869 10.84198644 -11.80359001 5.49326896 -5.015625 1.03125 C-3 0 -3 0 0 0 Z " fill="#6299BB" transform="translate(352,147)"/>
<path d="M0 0 C-0.66 0 -1.32 0 -2 0 C-1.37189827 2.97017694 -1.37189827 2.97017694 0 6 C1.65438613 6.69658363 3.32254318 7.36096883 5 8 C6.94333506 10.59111342 8.55369684 13.10739368 10 16 C5.43452816 13.93261652 1.6519465 10.86079519 -2.34375 7.875 C-4.52729043 6.33367734 -6.57445904 5.09835817 -9 4 C-6.3515138 0.02727069 -4.69305063 -1.56435021 0 0 Z " fill="#6197BA" transform="translate(324,249)"/>
<path d="M0 0 C2.57493457 2.57493457 2.28549282 4.35266796 2.328125 7.86791992 C2.32296875 8.67463135 2.3178125 9.48134277 2.3125 10.3125 C2.31121094 11.14177002 2.30992187 11.97104004 2.30859375 12.82543945 C2.16180228 22.67056018 0.62035734 32.30679093 -1 42 C-1.33 42 -1.66 42 -2 42 C-2 35.4 -2 28.8 -2 22 C-1.34 22 -0.68 22 0 22 C0 14.74 0 7.48 0 0 Z " fill="#8AB0CB" transform="translate(439,274)"/>
<path d="M0 0 C5.06998019 0.65419099 9.41990777 2.8546409 14 5 C12.6581656 9.02550319 10.5772427 9.88285636 7 12 C6.34 12 5.68 12 5 12 C5 11.34 5 10.68 5 10 C4.01 9.67 3.02 9.34 2 9 C3.32 8.34 4.64 7.68 6 7 C4.36605294 3.73210587 3.07179899 2.04786599 0 0 Z " fill="#6E9EBD" transform="translate(170,246)"/>
<path d="M0 0 C1.22589844 0.16371094 2.45179687 0.32742187 3.71484375 0.49609375 C9.66562018 1.15729113 15.58210983 1.10936261 21.5625 1.0625 C22.66658203 1.05798828 23.77066406 1.05347656 24.90820312 1.04882812 C27.605527 1.0371514 30.30273347 1.02077525 33 1 C32.67 1.66 32.34 2.32 32 3 C22.17968505 6.04768395 12.67546506 4.88566502 3 2 C2.01 1.34 1.02 0.68 0 0 Z " fill="#81ABC5" transform="translate(114,225)"/>
<path d="M0 0 C0.99 0.66 1.98 1.32 3 2 C2.17757813 2.06058594 1.35515625 2.12117187 0.5078125 2.18359375 C-5.63950472 2.64499747 -11.76102179 3.15061655 -17.87890625 3.9140625 C-20.12095776 4.00490068 -21.86228188 3.64955607 -24 3 C-16.11023386 -0.05410302 -8.42960915 -0.84405709 0 0 Z " fill="#81ACC7" transform="translate(376,143)"/>
<path d="M0 0 C0.99 0.495 0.99 0.495 2 1 C1.01 1.495 1.01 1.495 0 2 C0 1.34 0 0.68 0 0 Z M-1 2 C1.475 2.99 1.475 2.99 4 4 C0.71644638 7.67758005 -2.62778237 9.81389118 -7 12 C-7.66 11.67 -8.32 11.34 -9 11 C-8.67 9.68 -8.34 8.36 -8 7 C-4.25 5.875 -4.25 5.875 -2 7 C-1.67 5.35 -1.34 3.7 -1 2 Z " fill="#4A88B2" transform="translate(157,214)"/>
<path d="M0 0 C0.33 0 0.66 0 1 0 C0.50437849 4.95621512 -0.44215104 8.70281375 -3 13 C-3.99 13.495 -3.99 13.495 -5 14 C-5.24954005 12.56589632 -5.47392642 11.12739928 -5.6875 9.6875 C-5.81511719 8.88699219 -5.94273437 8.08648437 -6.07421875 7.26171875 C-6 5 -6 5 -4.51953125 3.20703125 C-4.01808594 2.80871094 -3.51664062 2.41039062 -3 2 C-2.01 2.66 -1.02 3.32 0 4 C0 2.68 0 1.36 0 0 Z " fill="#2774A9" transform="translate(335,350)"/>
<path d="M0 0 C-0.33 0.99 -0.66 1.98 -1 3 C-3.31 3.33 -5.62 3.66 -8 4 C-8.33 4.99 -8.66 5.98 -9 7 C-9.78375 7.309375 -10.5675 7.61875 -11.375 7.9375 C-14.40712462 9.16478854 -15.09792665 10.43633591 -17 13 C-19.1875 13.75 -19.1875 13.75 -21 14 C-21 13.34 -21 12.68 -21 12 C-20.34 12 -19.68 12 -19 12 C-19 11.34 -19 10.68 -19 10 C-6.80722892 0 -6.80722892 0 0 0 Z " fill="#8FB5CD" transform="translate(88,248)"/>
<path d="M0 0 C3.34373475 0.55728913 6.03312999 1.35173889 9 3 C9 3.66 9 4.32 9 5 C10.65 5.33 12.3 5.66 14 6 C14 6.66 14 7.32 14 8 C14.66 8.66 15.32 9.32 16 10 C12.83121799 9.34314541 10.27384291 8.23765019 7.4375 6.6875 C6.67308594 6.27886719 5.90867188 5.87023437 5.12109375 5.44921875 C2.83297812 3.88588376 1.5296284 2.2919991 0 0 Z " fill="#6196B9" transform="translate(214,222)"/>
<path d="M0 0 C3 2 3 2 3.58203125 3.91796875 C4.24262326 10.42312059 3.72868641 15.40697039 0 21 C0 14.07 0 7.14 0 0 Z " fill="#588DB0" transform="translate(172,177)"/>
<path d="M0 0 C0.66 0.33 1.32 0.66 2 1 C1.360625 1.2475 0.72125 1.495 0.0625 1.75 C-2.15962123 2.7658714 -2.15962123 2.7658714 -2.4375 4.75 C-3.34013222 8.36052887 -5.44087286 10.31900967 -8 13 C-8.99 13 -9.98 13 -11 13 C-11.33 13.66 -11.66 14.32 -12 15 C-12 14.01 -12 13.02 -12 12 C-11.34 12 -10.68 12 -10 12 C-9.5359375 11.071875 -9.5359375 11.071875 -9.0625 10.125 C-8.375 8.75 -7.6875 7.375 -7 6 C-6.34 6 -5.68 6 -5 6 C-5 5.34 -5 4.68 -5 4 C-4.34 4 -3.68 4 -3 4 C-3 3.34 -3 2.68 -3 2 C-2.01 1.34 -1.02 0.68 0 0 Z " fill="#5D94B6" transform="translate(176,266)"/>
<path d="M0 0 C-4.625 3 -4.625 3 -8 3 C-8 3.66 -8 4.32 -8 5 C-10.97 6.65 -13.94 8.3 -17 10 C-17.66 9.34 -18.32 8.68 -19 8 C-3.81646895 -1.27215632 -3.81646895 -1.27215632 0 0 Z " fill="#70A1C2" transform="translate(197,257)"/>
<path d="M0 0 C3.7762589 3.76613488 3.5415786 7.72196555 3.6875 12.75 C3.72166016 13.54277344 3.75582031 14.33554687 3.79101562 15.15234375 C3.87319104 17.10107504 3.93828045 19.05051362 4 21 C0.39965559 17.39965559 0.09452519 12.12977067 -0.125 7.18359375 C-0.125 4.78555375 -0.09004591 2.3962216 0 0 Z " fill="#75A2C1" transform="translate(162,338)"/>
<path d="M0 0 C2.94956528 1.36944102 5.52468811 2.87830409 8 5 C8 5.66 8 6.32 8 7 C8.66 7 9.32 7 10 7 C10.66 8.65 11.32 10.3 12 12 C10.68 11.34 9.36 10.68 8 10 C8 9.34 8 8.68 8 8 C7.01 8.33 6.02 8.66 5 9 C4.54625 8.071875 4.0925 7.14375 3.625 6.1875 C2.0578367 2.96078611 2.0578367 2.96078611 0 0 Z " fill="#8DB4CF" transform="translate(156,151)"/>
<path d="M0 0 C0.66 0.33 1.32 0.66 2 1 C1.27683594 1.67095703 1.27683594 1.67095703 0.5390625 2.35546875 C-3.06374359 5.80386886 -5.18337664 8.32868279 -7 13 C-9.625 14.8125 -9.625 14.8125 -12 16 C-11.67 14.68 -11.34 13.36 -11 12 C-10.34 12 -9.68 12 -9 12 C-8.7215625 10.9790625 -8.7215625 10.9790625 -8.4375 9.9375 C-6.41917747 5.81310179 -3.33712607 3.09621055 0 0 Z " fill="#95BAD1" transform="translate(214,139)"/>
<path d="M0 0 C1.48828125 1.11328125 1.48828125 1.11328125 3 3 C3.29296875 5.91796875 3.29296875 5.91796875 3.1875 9.1875 C3.16042969 10.27417969 3.13335937 11.36085938 3.10546875 12.48046875 C3.07066406 13.31191406 3.03585938 14.14335937 3 15 C1 14 1 14 0.37890625 12.265625 C-0.04706889 9.71855716 -0.09646629 7.33143831 -0.0625 4.75 C-0.05347656 3.85796875 -0.04445312 2.9659375 -0.03515625 2.046875 C-0.02355469 1.37140625 -0.01195312 0.6959375 0 0 Z " fill="#5D93B7" transform="translate(160,322)"/>
<path d="M0 0 C1.65 0.33 3.3 0.66 5 1 C4.278125 1.70125 3.55625 2.4025 2.8125 3.125 C0.83067874 5.08993073 -0.94707153 7.13178456 -2.6875 9.3125 C-3.450625 10.199375 -4.21375 11.08625 -5 12 C-5.66 12 -6.32 12 -7 12 C-6.03250577 9.84174363 -5.21906689 8.2099391 -3.5 6.5625 C-1.60096688 4.5843405 -0.90100969 2.56441218 0 0 Z " fill="#99BFD5" transform="translate(167,259)"/>
<path d="M0 0 C0.33 0 0.66 0 1 0 C1 1.65 1 3.3 1 5 C1.99 5.33 2.98 5.66 4 6 C5.75 7.875 5.75 7.875 7 10 C6.67 10.99 6.34 11.98 6 13 C5.34 13 4.68 13 4 13 C1.04952165 8.38987758 -0.5497272 5.63470383 0 0 Z " fill="#78A5C2" transform="translate(63,321)"/>
<path d="M0 0 C2.61668459 1.34025308 5.1360266 2.64863253 7.5625 4.3125 C7.5625 4.9725 7.5625 5.6325 7.5625 6.3125 C5.9125 5.9825 4.2625 5.6525 2.5625 5.3125 C2.5625 4.6525 2.5625 3.9925 2.5625 3.3125 C1.5725 3.3125 0.5825 3.3125 -0.4375 3.3125 C-0.4375 2.6525 -0.4375 1.9925 -0.4375 1.3125 C-2.4175 1.3125 -4.3975 1.3125 -6.4375 1.3125 C-3.9287817 -0.35997886 -2.96468746 -0.8361939 0 0 Z " fill="#5E94B9" transform="translate(316.4375,261.6875)"/>
<path d="M0 0 C1.875 1.5 1.875 1.5 3 3 C1.68 3 0.36 3 -1 3 C-1 2.34 -1 1.68 -1 1 C-2.94074861 1.27617533 -2.94074861 1.27617533 -5 2 C-5.99 3.485 -5.99 3.485 -7 5 C-9.97 4.505 -9.97 4.505 -13 4 C-9.26392077 0.26392077 -5.18792148 -0.56390451 0 0 Z " fill="#5B95B9" transform="translate(101,244)"/>
<path d="M0 0 C1.65 0.33 3.3 0.66 5 1 C5 1.66 5 2.32 5 3 C4.34 3 3.68 3 3 3 C3 3.66 3 4.32 3 5 C1 6.625 1 6.625 -1 8 C-1.66 7.67 -2.32 7.34 -3 7 C-2.67 5.35 -2.34 3.7 -2 2 C-1.34 2 -0.68 2 0 2 C0 1.34 0 0.68 0 0 Z " fill="#5B93BD" transform="translate(395,214)"/>
<path d="M0 0 C3.36179774 1.44077046 5.59156268 3.24750021 8 6 C8 6.66 8 7.32 8 8 C8.66 8 9.32 8 10 8 C10 8.66 10 9.32 10 10 C8.68 10 7.36 10 6 10 C5.7525 9.278125 5.505 8.55625 5.25 7.8125 C3.89016326 4.75286734 2.17082246 2.5326262 0 0 Z " fill="#97BDD6" transform="translate(425,255)"/>
<path d="M0 0 C-1.28965176 1.37562854 -2.62689293 2.70766393 -4 4 C-4.66 4 -5.32 4 -6 4 C-6 3.34 -6 2.68 -6 2 C-6.99 1.67 -7.98 1.34 -9 1 C-5.64919071 -1.10976881 -3.77897651 -1.0497157 0 0 Z " fill="#508CB4" transform="translate(181,254)"/>
<path d="M0 0 C1.37095624 3.69037278 0.60010967 5.70883835 -0.9375 9.25 C-1.31777344 10.14203125 -1.69804687 11.0340625 -2.08984375 11.953125 C-2.39019531 12.62859375 -2.69054687 13.3040625 -3 14 C-3.33 14 -3.66 14 -4 14 C-3.46148032 8.72250715 -2.22656164 4.74354436 0 0 Z " fill="#8FB4CD" transform="translate(330,166)"/>
<path d="M0 0 C-1.28965176 1.37562854 -2.62689293 2.70766393 -4 4 C-4.66 4 -5.32 4 -6 4 C-6.33 4.66 -6.66 5.32 -7 6 C-7.99 5.01 -8.98 4.02 -10 3 C-3.375 -1.125 -3.375 -1.125 0 0 Z " fill="#76A6C3" transform="translate(230,132)"/>
<path d="M0 0 C3.375 0.6875 3.375 0.6875 7 2 C8.4375 4.625 8.4375 4.625 9 7 C5.56072421 5.7580393 2.74792181 4.44259716 0 2 C0 1.34 0 0.68 0 0 Z " fill="#98B8CE" transform="translate(168,362)"/>
<path d="M0 0 C2.89932357 2.39509338 3.50168276 4.31245243 4 8 C3.566875 7.505 3.13375 7.01 2.6875 6.5 C1.00259517 4.66781808 1.00259517 4.66781808 -2 5 C-1.34 3.35 -0.68 1.7 0 0 Z " fill="#669ABD" transform="translate(435,265)"/>
<path d="M0 0 C5.13503344 0.64187918 9.9943454 1.68272247 15 3 C11.16608823 4.27797059 7.87006105 3.91106065 4 3 C1.5 1.4375 1.5 1.4375 0 0 Z " fill="#A3C3DB" transform="translate(155,242)"/>
<path d="M0 0 C2.38564077 0.57584432 4.66682784 1.22227595 7 2 C7 2.66 7 3.32 7 4 C7.99 4.33 8.98 4.66 10 5 C9.34 5.66 8.68 6.32 8 7 C8 6.34 8 5.68 8 5 C7.236875 4.9175 6.47375 4.835 5.6875 4.75 C2.47626739 3.85384206 1.70625501 2.78388975 0 0 Z " fill="#88B0C7" transform="translate(385,147)"/>
<path d="M0 0 C-0.66 0 -1.32 0 -2 0 C-1.67 0.99 -1.34 1.98 -1 3 C-1.99 3 -2.98 3 -4 3 C-4.99 3.495 -4.99 3.495 -6 4 C-6.99 4 -7.98 4 -9 4 C-6.3515138 0.02727069 -4.69305063 -1.56435021 0 0 Z " fill="#98C0DA" transform="translate(324,249)"/>
<path d="M0 0 C-0.33 0.66 -0.66 1.32 -1 2 C-2.65 2 -4.3 2 -6 2 C-6 2.66 -6 3.32 -6 4 C-8.97 3.505 -8.97 3.505 -12 3 C-7.85930434 0.85826087 -4.68855996 -0.12671784 0 0 Z " fill="#9EC0D6" transform="translate(218,250)"/>
<path d="M0 0 C0.33 0.66 0.66 1.32 1 2 C1.66 2.33 2.32 2.66 3 3 C-1.625 6 -1.625 6 -5 6 C-5 5.01 -5 4.02 -5 3 C-4.360625 2.87625 -3.72125 2.7525 -3.0625 2.625 C-2.0415625 2.315625 -2.0415625 2.315625 -1 2 C-0.67 1.34 -0.34 0.68 0 0 Z " fill="#679ABA" transform="translate(389,220)"/>
<path d="M0 0 C2.3125 0.1875 2.3125 0.1875 5 1 C6.8125 3.5625 6.8125 3.5625 8 6 C4.08597051 4.73058503 2.20927127 3.48832306 0 0 Z " fill="#81A9C4" transform="translate(214,222)"/>
<path d="M0 0 C0.66 0.33 1.32 0.66 2 1 C1.360625 1.2475 0.72125 1.495 0.0625 1.75 C-2.18741541 2.81562433 -2.18741541 2.81562433 -2.75 5.125 C-2.8325 5.74375 -2.915 6.3625 -3 7 C-4.32 7.33 -5.64 7.66 -7 8 C-7 7.34 -7 6.68 -7 6 C-6.34 6 -5.68 6 -5 6 C-5 5.34 -5 4.68 -5 4 C-4.34 4 -3.68 4 -3 4 C-3 3.34 -3 2.68 -3 2 C-2.01 1.34 -1.02 0.68 0 0 Z " fill="#A6C7DC" transform="translate(176,266)"/>
<path d="M0 0 C-0.33 0.99 -0.66 1.98 -1 3 C-3.97 2.67 -6.94 2.34 -10 2 C-6.3558226 -0.4294516 -4.28758728 -0.16179575 0 0 Z " fill="#6F9ABB" transform="translate(347,242)"/>
<path d="M0 0 C1.32 0.33 2.64 0.66 4 1 C4.66 3.31 5.32 5.62 6 8 C5.34 8 4.68 8 4 8 C0 2.58823529 0 2.58823529 0 0 Z " fill="#79A3C1" transform="translate(203,209)"/>
<path d="M0 0 C2 1 2 1 3.125 3.25 C4.00513321 6.01613295 4.1645438 8.12048351 4 11 C1 9 1 9 0.48828125 6.8359375 C0.43027344 6.02382812 0.37226563 5.21171875 0.3125 4.375 C0.24675781 3.55773437 0.18101562 2.74046875 0.11328125 1.8984375 C0.07589844 1.27195313 0.03851563 0.64546875 0 0 Z " fill="#8DB4D0" transform="translate(170,167)"/>
<path d="M0 0 C1.32 0 2.64 0 4 0 C4 0.66 4 1.32 4 2 C2.1875 3.6875 2.1875 3.6875 0 5 C-0.99 4.67 -1.98 4.34 -3 4 C-1.75 2 -1.75 2 0 0 Z " fill="#3C7CA4" transform="translate(218,136)"/>
<path d="M0 0 C0.66 0 1.32 0 2 0 C1.34 3.3 0.68 6.6 0 10 C-0.33 10 -0.66 10 -1 10 C-1.125 2.25 -1.125 2.25 0 0 Z " fill="#7CA7C2" transform="translate(151,283)"/>
<path d="M0 0 C1.98 1.65 3.96 3.3 6 5 C4.68 5.33 3.36 5.66 2 6 C1.67 5.01 1.34 4.02 1 3 C0.34 2.67 -0.32 2.34 -1 2 C-0.67 1.34 -0.34 0.68 0 0 Z " fill="#09598C" transform="translate(425,256)"/>
<path d="M0 0 C-0.66 1.65 -1.32 3.3 -2 5 C-2.66 5 -3.32 5 -4 5 C-4 4.34 -4 3.68 -4 3 C-4.66 3 -5.32 3 -6 3 C-6 2.34 -6 1.68 -6 1 C-4 0 -4 0 0 0 Z " fill="#528AB1" transform="translate(404,210)"/>
<path d="M0 0 C2.88437779 1.29299694 4.87219421 2.65941363 7 5 C4.69 5.33 2.38 5.66 0 6 C0.33 5.01 0.66 4.02 1 3 C0.67 2.01 0.34 1.02 0 0 Z " fill="#5893B9" transform="translate(278,136)"/>
<path d="M0 0 C1.65 0 3.3 0 5 0 C3.35 1.65 1.7 3.3 0 5 C-0.99 4.67 -1.98 4.34 -3 4 C-2.34 3.67 -1.68 3.34 -1 3 C-0.67 2.01 -0.34 1.02 0 0 Z " fill="#97B8D0" transform="translate(325,364)"/>
<path d="M0 0 C0.33 0 0.66 0 1 0 C0.25 6.625 0.25 6.625 -2 10 C-2.33 8.02 -2.66 6.04 -3 4 C-2.01 4 -1.02 4 0 4 C0 2.68 0 1.36 0 0 Z " fill="#6FA3C5" transform="translate(335,350)"/>
<path d="M0 0 C1.32 1.32 2.64 2.64 4 4 C3.67 4.99 3.34 5.98 3 7 C3 6.34 3 5.68 3 5 C2.01 5.33 1.02 5.66 0 6 C-1 3 -1 3 0 0 Z " fill="#71A1C2" transform="translate(295,153)"/>
</svg>
